<?xml version="1.0" encoding="utf-8"?>
<!-- Generator: Adobe Illustrator 27.5.0, SVG Export Plug-In . SVG Version: 6.00 Build 0)  -->
<svg version="1.1" id="Ñëîé_1" xmlns="http://www.w3.org/2000/svg" xmlns:xlink="http://www.w3.org/1999/xlink" x="0px" y="0px"
	 viewBox="0 0 2900 2000" style="enable-background:new 0 0 2900 2000;" xml:space="preserve">
<g>
	<rect id="_x31_6" style="fill:#A2C3F2;" width="2900" height="2000"/>
	<g id="_x31_5">
		<g>
			<rect x="2054.906" y="454.703" style="fill:#ADCFF7;" width="539.668" height="1295.348"/>
			
				<rect x="1534.737" y="1079.09" transform="matrix(6.123234e-17 -1 1 6.123234e-17 1022.2681 3243.6699)" style="fill:#B9DAFC;" width="1196.464" height="63.221"/>
			
				<rect x="1662.585" y="1079.09" transform="matrix(6.123234e-17 -1 1 6.123234e-17 1150.1158 3371.5176)" style="fill:#B9DAFC;" width="1196.464" height="63.221"/>
			
				<rect x="1790.433" y="1079.09" transform="matrix(6.123234e-17 -1 1 6.123234e-17 1277.9637 3499.3655)" style="fill:#B9DAFC;" width="1196.464" height="63.221"/>
			
				<rect x="1918.281" y="1079.09" transform="matrix(6.123234e-17 -1 1 6.123234e-17 1405.8115 3627.2134)" style="fill:#B9DAFC;" width="1196.464" height="63.221"/>
		</g>
		<g>
			<rect x="2508.9" y="659.157" style="fill:#ADCFF7;" width="387.769" height="1295.348"/>
			
				<rect x="1988.73" y="1283.544" transform="matrix(6.123234e-17 -1 1 6.123234e-17 1271.8081 3902.116)" style="fill:#B9DAFC;" width="1196.464" height="63.221"/>
			
				<rect x="2116.578" y="1283.544" transform="matrix(6.123234e-17 -1 1 6.123234e-17 1399.656 4029.9639)" style="fill:#B9DAFC;" width="1196.464" height="63.221"/>
			
				<rect x="2244.426" y="1283.544" transform="matrix(6.123234e-17 -1 1 6.123234e-17 1527.5038 4157.8115)" style="fill:#B9DAFC;" width="1196.464" height="63.221"/>
		</g>
		<g>
			<rect y="469.77" style="fill:#ADCFF7;" width="310.167" height="1295.348"/>
			
				<rect x="-493.974" y="1094.157" transform="matrix(6.123234e-17 -1 1 6.123234e-17 -1021.5101 1230.025)" style="fill:#B9DAFC;" width="1196.464" height="63.221"/>
			
				<rect x="-366.127" y="1094.157" transform="matrix(6.123234e-17 -1 1 6.123234e-17 -893.6624 1357.8728)" style="fill:#B9DAFC;" width="1196.464" height="63.221"/>
		</g>
		<g>
			<rect x="1012.178" y="376.075" style="fill:#ADCFF7;" width="539.668" height="1295.348"/>
			
				<rect x="492.009" y="1000.462" transform="matrix(6.123234e-17 -1 1 6.123234e-17 58.1679 2122.313)" style="fill:#B9DAFC;" width="1196.464" height="63.221"/>
			
				<rect x="619.856" y="1000.462" transform="matrix(6.123234e-17 -1 1 6.123234e-17 186.0159 2250.1609)" style="fill:#B9DAFC;" width="1196.464" height="63.221"/>
			
				<rect x="747.704" y="1000.462" transform="matrix(6.123234e-17 -1 1 6.123234e-17 313.8636 2378.0085)" style="fill:#B9DAFC;" width="1196.464" height="63.221"/>
			
				<rect x="875.552" y="1000.462" transform="matrix(6.123234e-17 -1 1 6.123234e-17 441.7115 2505.8564)" style="fill:#B9DAFC;" width="1196.464" height="63.221"/>
		</g>
		<g>
			<rect x="405.594" y="663.795" style="fill:#ADCFF7;" width="539.668" height="1295.348"/>
			<rect x="449.911" y="708.411" style="fill:#B9DAFC;" width="451.033" height="63.221"/>
			<rect x="449.911" y="815.451" style="fill:#B9DAFC;" width="451.033" height="63.221"/>
			<rect x="449.911" y="922.49" style="fill:#B9DAFC;" width="451.033" height="63.221"/>
			<rect x="449.911" y="1029.53" style="fill:#B9DAFC;" width="451.033" height="63.221"/>
			<rect x="449.911" y="1136.57" style="fill:#B9DAFC;" width="451.033" height="63.221"/>
			<rect x="449.911" y="1243.609" style="fill:#B9DAFC;" width="451.033" height="63.221"/>
			<rect x="449.911" y="1350.649" style="fill:#B9DAFC;" width="451.033" height="63.221"/>
			<rect x="449.911" y="1457.689" style="fill:#B9DAFC;" width="451.033" height="63.221"/>
			<rect x="449.911" y="1564.729" style="fill:#B9DAFC;" width="451.033" height="63.221"/>
		</g>
		<g>
			<rect x="1456.836" y="637.172" style="fill:#ADCFF7;" width="539.668" height="1295.348"/>
			<rect x="1501.153" y="681.788" style="fill:#B9DAFC;" width="451.033" height="63.221"/>
			<rect x="1501.153" y="788.827" style="fill:#B9DAFC;" width="451.033" height="63.221"/>
			<rect x="1501.153" y="895.867" style="fill:#B9DAFC;" width="451.033" height="63.221"/>
			<rect x="1501.153" y="1002.907" style="fill:#B9DAFC;" width="451.033" height="63.221"/>
			<rect x="1501.153" y="1109.947" style="fill:#B9DAFC;" width="451.033" height="63.221"/>
			<rect x="1501.153" y="1216.986" style="fill:#B9DAFC;" width="451.033" height="63.221"/>
			<rect x="1501.153" y="1324.026" style="fill:#B9DAFC;" width="451.033" height="63.221"/>
			<rect x="1501.153" y="1431.066" style="fill:#B9DAFC;" width="451.033" height="63.221"/>
			<rect x="1501.153" y="1538.105" style="fill:#B9DAFC;" width="451.033" height="63.221"/>
		</g>
	</g>
	<g id="_x31_4">
		<path style="fill:#5AA85A;" d="M709.664,700.844c8.547-11.983,13.575-26.648,13.575-42.488c0-30.516-18.661-56.669-45.193-67.681
			c15.545-13.432,25.383-33.291,25.383-55.448c0-40.456-32.796-73.252-73.252-73.252c-30.48,0-56.609,18.618-67.643,45.1
			c-7.294-1.337-14.81-2.04-22.49-2.04c-68.473,0-123.981,55.508-123.981,123.981c0,10.119,1.221,19.951,3.508,29.366
			c-0.661-0.015-1.323-0.025-1.988-0.025c-48.811,0-88.38,39.569-88.38,88.38c0,44.177,32.413,80.781,74.754,87.334
			c8.42,60.28,60.173,106.677,122.773,106.677c38.167,0,72.3-17.252,95.043-44.376c14.206,6.95,30.173,10.856,47.055,10.856
			c59.216,0,107.221-48.004,107.221-107.221C776.049,755.251,748.623,716.906,709.664,700.844z"/>
		<path style="fill:#6D4738;" d="M661.209,748.67c-2.39-2.167-6.084-1.987-8.251,0.402l-85.641,94.427l0.245-202.526
			c0.004-3.226-2.608-5.844-5.834-5.848h-0.007c-3.222,0-5.837,2.611-5.841,5.834l-0.129,106.846l-39.285-27.451l4.889-57.919
			c0.271-3.215-2.115-6.041-5.329-6.312c-3.211-0.275-6.041,2.115-6.312,5.329l-4.319,51.166l-35.234-24.621
			c-2.645-1.847-6.286-1.202-8.134,1.442c-1.848,2.644-1.202,6.286,1.442,8.134l92.264,64.471l-0.514,424.398
			c-0.004,3.226,2.608,5.844,5.834,5.848h0.007c3.222,0,5.837-2.611,5.841-5.834l0.395-325.545l94.316-103.991
			C663.779,754.531,663.599,750.837,661.209,748.67z"/>
	</g>
	<g id="_x31_3">
		<path style="fill:#5AA85A;" d="M2580.021,734.141c0-41.889-28.121-77.21-66.515-88.114c23.088-13.019,38.682-37.769,38.682-66.165
			c0-38.809-29.125-70.812-66.708-75.354c4.375-10.945,6.785-22.888,6.785-35.396c0-52.699-42.721-95.42-95.42-95.42
			c-47.772,0-87.345,35.107-94.326,80.929c-9.717-4.519-20.548-7.047-31.971-7.047c-41.925,0-75.911,33.987-75.911,75.911
			c0,3.099,0.19,6.153,0.551,9.155c-44.102,11.402-67.405,50.009-67.405,91.088c0,46.215,33.394,74.773,61.259,84.191
			c-30.252,15.406-54.783,49.27-56.91,81.365c-4.35,65.658,39.998,112.112,95.937,111.172c17.491-0.294,34.04-4.048,48.762-11.25
			c23.568,28.109,58.94,45.987,98.492,45.987c64.872,0,118.504-48.081,127.229-110.549
			C2546.432,817.854,2580.021,779.921,2580.021,734.141z"/>
		<path style="fill:#6D4738;" d="M2442.203,674.886c-1.848-2.645-5.491-3.29-8.134-1.442l-36.814,25.725l-2.853-33.789
			c-0.271-3.215-3.108-5.602-6.312-5.329c-3.215,0.271-5.6,3.097-5.33,6.312l3.423,40.542l-41.144,28.75l-0.135-111.131
			c-0.004-3.224-2.618-5.834-5.841-5.834h-0.007c-3.226,0.004-5.838,2.622-5.834,5.848l0.255,210.428l-89.12-98.262
			c-2.167-2.39-5.862-2.57-8.25-0.403c-2.39,2.167-2.57,5.861-0.403,8.251l97.794,107.826l0.409,337.443
			c0.004,3.224,2.618,5.834,5.841,5.834h0.007c3.226-0.004,5.838-2.622,5.834-5.848l-0.534-439.913l95.703-66.875
			C2443.405,681.172,2444.051,677.531,2442.203,674.886z"/>
	</g>
	<g id="_x31_2">
		<path style="fill:#5AA85A;" d="M2837.014,832.281c-94.447,0-176.009,55.164-214.218,135.036
			c-92.982-26.976-197.452,22.75-236.708,106.79c-40.535-14.728-91.084-6.825-124.613,18.461
			c-17.01-34.7-48.129-61.224-85.885-72.09c7.004-107.736-148.316-140.159-185.992-40.822
			c-45.107-17.113-101.948-11.584-142.35,13.178c-37.12-79.545-165.599-74.853-196.795,7.168
			c-32.655-114.664-205.624-78.566-188.316,40.717c-0.011,0.009-0.022,0.018-0.033,0.027
			c-20.505-68.805-122.078-87.114-165.414-29.603c-71.5-84.954-224.595-76.56-286.46,15.078
			c-35.758-37.784-106.158-35.205-139.066,4.845c-70.965-114.37-265.026-85.018-298.712,45.296
			c-28.977-11.957-65.506-12.858-95.181-2.255c-39.241-84.036-143.744-133.77-236.709-106.789
			C199.643,879.6,101.528,821.65,0,833.732v471.763c43.968,5.09,90.639-3.156,128.788-21.731
			c64.701,98.468,226.565,113.006,307.834,26.552c62.124,53.715,171.086,30.222,205.966-42.786
			c52.995,35.938,134.026,34.369,185.507-3.401c38.766,74.263,158.348,78.824,202.655,7.594
			c53.626,54.82,151.578,68.432,218.863,28.778c59.181,64.067,178.849,45.808,216.484-31.995
			c39.352,33.156,102.918,42.291,150.81,20.512c42.58,93.46,188.975,85.183,220.764-12.451
			c60.951,44.687,158.615,36.227,210.834-17.293c44.801,40.261,123.311,42.857,170.763,5.352
			c33.658,75.038,144.342,100.268,207.468,45.689c81.283,86.467,243.138,71.903,307.837-26.556
			c48.789,24.102,112.074,29.98,165.425,14.73V840.736C2879.945,835.226,2858.82,832.281,2837.014,832.281z"/>
		<path style="fill:#60BF60;" d="M2873.655,932.666c-94.447,0-176.009,55.164-214.218,135.036
			c-92.982-26.977-197.453,22.75-236.709,106.789c-41.69-15.169-93.661-6.319-127.406,20.537
			c-30.057-108.094-187.578-140.561-258.107-52.793c-29.504-48.797-107.995-57.449-147.445-15.629
			c-61.869-91.651-214.97-100.02-286.46-15.078c-16.772-20.253-41.66-33.535-69.68-34.87
			c6.848-122.657-173.37-140.657-191.752-20.229c-41.479-42.232-121.955-29.965-149.166,21.912
			c-39.307-30.332-104.094-20.241-132.413,19.594c-41.322-28.545-101.912-36.163-149.895-17.895
			c-37.727-99.373-192.986-66.877-185.992,40.822c-37.755,10.866-68.875,37.39-85.885,72.09
			c-33.522-25.286-84.085-33.189-124.613-18.461c-39.241-84.036-143.744-133.77-236.708-106.79
			C232.217,968.233,109.258,909.094,0,941.121v457.754c53.358,15.25,116.63,9.373,165.425-14.73
			c64.699,98.471,226.566,113.011,307.837,26.556c63.139,54.586,173.806,29.34,207.468-45.689
			c47.456,37.507,125.963,34.906,170.763-5.352c52.217,53.523,149.891,61.977,210.835,17.293
			c31.807,97.674,178.205,105.874,220.764,12.451c47.9,21.779,111.452,12.644,150.81-20.512
			c37.635,77.814,157.314,96.052,216.484,31.995c67.297,39.655,165.23,26.041,218.863-28.778
			c42.901,68.952,158.107,67.573,199.364-2.304c53.347,37.039,136.532,30.416,183.181-13.799
			c29.548,81.139,145.345,111.92,211.583,54.696c81.283,86.466,243.135,71.904,307.835-26.552
			c38.142,18.573,84.828,26.822,128.788,21.731V934.116C2891.356,933.157,2882.555,932.666,2873.655,932.666z"/>
	</g>
	<g id="_x31_1">
		<rect y="1298.292" style="fill:#606A97;" width="2900" height="701.708"/>
		<rect x="2553.995" y="1632.415" style="fill:#F1F3F2;" width="245.333" height="33.461"/>
		<rect x="2063.331" y="1632.415" style="fill:#F1F3F2;" width="245.332" height="33.461"/>
		<rect x="1572.666" y="1632.415" style="fill:#F1F3F2;" width="245.332" height="33.461"/>
		<rect x="1082.001" y="1632.415" style="fill:#F1F3F2;" width="245.333" height="33.461"/>
		<rect x="591.336" y="1632.415" style="fill:#F1F3F2;" width="245.332" height="33.461"/>
		<rect x="100.671" y="1632.415" style="fill:#F1F3F2;" width="245.332" height="33.461"/>
	</g>
	<g id="_x31_0">
		<path style="fill:#FFFFFF;" d="M754.37,226.373c-3.202,0.155-6.325,0.581-9.36,1.232c0.179-2.362,0.231-4.757,0.114-7.184
			c-1.534-31.731-28.501-56.211-60.232-54.677c-20.004,0.967-37.117,12.047-46.657,28.05c-5.542-27.381-30.388-47.361-59.149-45.971
			c-31.731,1.534-56.211,28.501-54.677,60.232c0.28,5.795,1.417,11.344,3.268,16.541c-0.819,0.005-1.64,0.017-2.465,0.057
			c-31.731,1.534-56.211,28.5-54.677,60.232c1.534,31.731,28.501,56.211,60.232,54.677c12.388-0.599,23.661-5.087,32.722-12.21
			c14.026,26.041,42.124,43.144,73.638,41.621c33.713-1.63,61.466-24.105,71.443-54.351c10.724,16.882,29.948,27.694,51.354,26.66
			c31.731-1.534,56.211-28.5,54.677-60.232C813.067,249.319,786.101,224.839,754.37,226.373z"/>
		<path style="fill:#FFFFFF;" d="M2178.528,230.094c-0.67-0.023-1.335-0.023-2-0.018c1.441-4.235,2.299-8.746,2.459-13.448
			c0.878-25.742-19.278-47.322-45.02-48.201c-23.332-0.796-43.245,15.688-47.423,37.949c-7.918-12.864-21.92-21.65-38.148-22.203
			c-25.742-0.878-47.322,19.278-48.2,45.02c-0.067,1.969,0.003,3.91,0.175,5.823c-2.468-0.493-5.005-0.802-7.602-0.891
			c-25.742-0.878-47.323,19.278-48.201,45.02c-0.878,25.742,19.278,47.323,45.02,48.201c17.365,0.592,32.826-8.395,41.326-22.204
			c8.436,24.406,31.194,42.307,58.544,43.241c25.566,0.872,48.149-13.317,59.22-34.59c7.428,5.67,16.618,9.179,26.669,9.522
			c25.742,0.878,47.322-19.278,48.201-45.02C2224.427,252.553,2204.271,230.973,2178.528,230.094z"/>
		<path style="fill:#FFFFFF;" d="M1566.172,188.558c-0.38-0.046-0.759-0.078-1.137-0.107c1.026-2.341,1.735-4.868,2.055-7.537
			c1.754-14.613-8.67-27.882-23.284-29.636c-13.245-1.59-25.386,6.825-28.849,19.296c-3.881-7.71-11.425-13.394-20.637-14.5
			c-14.613-1.754-27.882,8.67-29.636,23.284c-0.134,1.118-0.189,2.226-0.184,3.324c-1.381-0.401-2.81-0.701-4.285-0.878
			c-14.614-1.754-27.882,8.67-29.636,23.284c-1.754,14.613,8.67,27.882,23.284,29.636c9.858,1.183,19.098-3.18,24.61-10.628
			c3.614,14.306,15.699,25.607,31.225,27.471c14.514,1.742,28.062-5.236,35.402-16.809c3.953,3.59,9.014,6.036,14.72,6.72
			c14.614,1.754,27.882-8.67,29.636-23.284C1591.21,203.581,1580.786,190.313,1566.172,188.558z"/>
	</g>
	<g id="_x39__1_">
		<polygon style="fill:#FFFFFF;" points="2404.949,1444.992 2275.487,1444.992 2288.431,1408.611 2301.382,1372.223 
			2314.326,1335.842 2327.277,1299.461 2340.221,1263.08 2353.166,1299.461 2379.053,1372.223 2392.005,1408.611 		"/>
		<polygon style="fill:#FF593A;" points="2353.166,1299.461 2327.277,1299.461 2340.221,1263.08 		"/>
		<polygon style="fill:#FF593A;" points="2379.053,1372.223 2301.382,1372.223 2314.326,1335.842 2366.11,1335.842 		"/>
		<polygon style="fill:#FF593A;" points="2404.949,1444.992 2275.487,1444.992 2288.431,1408.611 2392.005,1408.611 		"/>
		<path style="fill:#FF593A;" d="M2411.863,1455.401H2268.58c-5.517,0-9.99-4.473-9.99-9.99v-0.837c0-5.517,4.473-9.99,9.99-9.99
			h143.283c5.517,0,9.99,4.473,9.99,9.99v0.837C2421.853,1450.928,2417.38,1455.401,2411.863,1455.401z"/>
	</g>
	<g id="_x38__1_">
		<path style="fill:#30313C;" d="M1612.301,1897.572c-1.232,0-2.23-0.998-2.23-2.23v-113.373c0-1.232,0.998-2.23,2.23-2.23
			s2.23,0.998,2.23,2.23v113.373C1614.531,1896.574,1613.533,1897.572,1612.301,1897.572z"/>
		<path style="fill:#30313C;" d="M1925.767,1897.572c-1.232,0-2.23-0.998-2.23-2.23v-113.373c0-1.232,0.998-2.23,2.23-2.23
			s2.23,0.998,2.23,2.23v113.373C1927.997,1896.574,1926.999,1897.572,1925.767,1897.572z"/>
		<rect x="1578.78" y="1731.064" style="fill:#FFFFFF;" width="380.448" height="50.904"/>
		<polygon style="fill:#FF593A;" points="1695.739,1731.064 1644.828,1781.968 1578.839,1781.968 1629.743,1731.064 		"/>
		<polygon style="fill:#FF593A;" points="1827.557,1731.064 1776.647,1781.968 1710.658,1781.968 1761.556,1731.064 		"/>
		<polygon style="fill:#FF593A;" points="1959.228,1731.064 1959.228,1731.313 1908.567,1781.968 1842.571,1781.968 
			1893.476,1731.064 		"/>
	</g>
	<g id="_x37__1_">
		<path style="fill:#9B453A;" d="M1426.189,1617.992c-24.048,0-43.612-17.169-43.612-38.273c0-21.104,19.564-38.273,43.612-38.273
			s43.612,17.169,43.612,38.273C1469.802,1600.823,1450.238,1617.992,1426.189,1617.992z M1426.189,1546.291
			c-21.377,0-38.767,14.996-38.767,33.428c0,18.433,17.391,33.428,38.767,33.428c21.376,0,38.767-14.996,38.767-33.428
			C1464.957,1561.286,1447.566,1546.291,1426.189,1546.291z"/>
		<path style="fill:#FF593A;" d="M1461.874,1695.18h-71.369l-19.152-107.539c-0.667-6.308,4.279-11.804,10.623-11.804h88.428
			c6.344,0,11.289,5.496,10.623,11.804L1461.874,1695.18z"/>
		<path style="fill:#9B453A;" d="M1481.175,1588.385h-109.822c-0.411,0-0.744-0.333-0.744-0.744c0-0.411,0.333-0.744,0.744-0.744
			h109.822c0.411,0,0.744,0.333,0.744,0.744C1481.919,1588.052,1481.586,1588.385,1481.175,1588.385z"/>
	</g>
	<g id="_x36__1_">
		<path style="fill:#394572;" d="M1064.954,1800.989h-486.82c-0.879-0.48-1.758-0.991-2.637-1.486
			c0,0,106.417-187.774,207.368-184.457c32.117,1.066,79.768,27.185,129.804,62.311
			C966.015,1714.811,1022.084,1762.501,1064.954,1800.989z"/>
		<path style="fill:#394572;" d="M1347.935,1800.989H744.642c44.593-46.685,104.611-89.751,168.026-123.631
			c126.094-67.34,265.628-98.353,324.129-49.297C1284.774,1668.291,1322.695,1740.945,1347.935,1800.989z"/>
		<path style="fill:#606A97;" d="M777.619,1772.697c-0.842,0-1.667-0.519-2.152-1.468c-0.759-1.48-0.411-3.448,0.776-4.391
			c0.852-0.677,85.685-68.037,135.491-92.425c1.31-0.641,2.793,0.159,3.307,1.797c0.516,1.636-0.13,3.482-1.442,4.123
			c-49.349,24.162-133.763,91.189-134.61,91.863C778.564,1772.535,778.089,1772.697,777.619,1772.697z"/>
	</g>
	<g id="_x35__1_">
		<rect x="2683.796" y="816.268" style="fill:#30313C;" width="15.899" height="486.178"/>
		<rect x="2643.491" y="663.128" style="fill:#30313C;" width="96.509" height="204.766"/>
		
			<ellipse transform="matrix(0.2298 -0.9732 0.9732 0.2298 1372.1575 3174.6416)" style="fill:#FF593A;" cx="2691.745" cy="720.423" rx="36.713" ry="36.713"/>
		<circle style="fill:#60BF60;" cx="2691.745" cy="810.598" r="36.713"/>
		<path style="fill:#64656E;" d="M2699.695,868.544h-15.899c-0.359,0-0.65-0.291-0.65-0.65c0-0.359,0.291-0.65,0.65-0.65h15.899
			c0.359,0,0.65,0.291,0.65,0.65C2700.346,868.252,2700.055,868.544,2699.695,868.544z"/>
	</g>
	<g id="_x34_">
		<rect x="200.305" y="816.268" style="fill:#30313C;" width="15.899" height="486.178"/>
		<rect x="160" y="663.128" style="fill:#30313C;" width="96.509" height="204.766"/>
		
			<ellipse transform="matrix(0.7071 -0.7071 0.7071 0.7071 -448.4195 358.2652)" style="fill:#FF593A;" cx="208.255" cy="720.423" rx="36.713" ry="36.713"/>
		<circle style="fill:#60BF60;" cx="208.255" cy="810.598" r="36.713"/>
		<path style="fill:#64656E;" d="M216.205,868.544h-15.9c-0.359,0-0.65-0.291-0.65-0.65c0-0.359,0.291-0.65,0.65-0.65h15.9
			c0.359,0,0.65,0.291,0.65,0.65C216.855,868.252,216.564,868.544,216.205,868.544z"/>
	</g>
	<g id="_x33_">
		<path style="fill:#394572;" d="M1070.415,818.578c0,0,136.46-193.164,265.919-189.742s455.601,261.579,455.601,261.579
			S1402.47,970.738,1070.415,818.578z"/>
		<path style="fill:#394572;" d="M2106.322,921.717c0,0-70.475-200.499-187.902-279.495
			c-117.427-78.996-489.463,43.842-651.454,195.926C1266.966,838.148,1837.328,925.794,2106.322,921.717z"/>
		<path style="fill:#606A97;" d="M1329.607,791.01c-1.08,0-2.138-0.534-2.759-1.51c-0.973-1.522-0.527-3.547,0.995-4.517
			c1.092-0.697,109.875-69.99,173.744-95.078c1.68-0.659,3.582,0.163,4.241,1.849c0.662,1.683-0.167,3.582-1.849,4.241
			c-63.282,24.855-171.528,93.806-172.614,94.5C1330.818,790.843,1330.21,791.01,1329.607,791.01z"/>
		<rect x="1028.059" y="1257.436" style="fill:#FC8F00;" width="1131.733" height="169.223"/>
		<path style="fill:#FFB12A;" d="M859.971,880.905c-13.677,0.012-26.547,6.477-34.724,17.441l-104.211,139.74
			c-50.946,68.315-78.468,151.256-78.468,236.475v79.399c0,40.151,32.549,72.699,72.7,72.699h26.316
			c14.823-64.484,72.572-112.575,141.555-112.575c68.983,0,126.733,48.091,141.556,112.575h16.786V880.74L859.971,880.905z"/>
		<path style="fill:#997243;" d="M2159.793,1408.659H1040.199c-0.916,0-1.715-0.622-1.939-1.511
			c-16.505-65.393-79.623-111.064-153.492-111.064s-136.987,45.672-153.491,111.064c-0.225,0.889-1.023,1.511-1.939,1.511h-28.896
			c-17.183,0-33.628-4.808-47.556-13.902c-0.925-0.604-1.185-1.844-0.581-2.769c0.605-0.924,1.843-1.183,2.768-0.581
			c13.276,8.67,28.964,13.252,45.369,13.252h27.347c8.303-31.343,28.064-59.734,55.779-80.081
			c28.541-20.954,64.481-32.494,101.2-32.494s72.659,11.54,101.2,32.494c27.715,20.347,47.476,48.738,55.779,80.081h1118.045
			c1.104,0,2,0.896,2,2S2160.897,1408.659,2159.793,1408.659z"/>
		
			<ellipse transform="matrix(0.7071 -0.7071 0.7071 0.7071 -773.2367 1051.9019)" style="fill:#30313C;" cx="883.139" cy="1459.33" rx="131.192" ry="131.192"/>
		
			<ellipse transform="matrix(0.9743 -0.2253 0.2253 0.9743 -306.0845 236.4949)" style="fill:#F1F3F2;" cx="883.14" cy="1459.33" rx="92.142" ry="92.142"/>
		<path style="fill:#30313C;" d="M996.64,1462.992v-7.325h-83.467c-0.678-5.613-2.89-10.75-6.207-14.983l59.02-59.021l-5.18-5.181
			l-59.02,59.02c-4.234-3.318-9.371-5.53-14.984-6.208v-80.621h-7.325v80.621c-5.613,0.678-10.75,2.89-14.983,6.208l-59.021-59.021
			l-5.18,5.181l59.02,59.021c-3.318,4.233-5.529,9.37-6.207,14.983H769.64v7.325h83.466c0.678,5.613,2.89,10.75,6.208,14.984
			l-59.021,59.021l5.18,5.18l59.021-59.021c4.234,3.318,9.37,5.53,14.983,6.207v86.312h7.325v-86.312
			c5.613-0.677,10.75-2.889,14.983-6.207l59.021,59.021l5.18-5.18l-59.021-59.021c3.318-4.234,5.53-9.371,6.208-14.984H996.64z"/>
		<polygon style="fill:#FF593A;" points="2208.932,1300.02 1018.923,1300.02 1018.923,771.808 2092.385,772.447 		"/>
		<path style="fill:#7CE1F7;" d="M991.498,934.517v178.806c0,16.558-13.424,29.982-29.982,29.982H740.698
			c-24.441,0-38.617-27.678-24.331-47.505l128.744-178.703c3.19-4.424,7.48-7.828,12.339-9.949c3.72-1.623,7.772-2.493,11.936-2.501
			l64.831-0.079l19.985-0.024l7.258-0.008c10.487-0.016,19.724,5.35,25.098,13.495C989.677,922.763,991.498,928.43,991.498,934.517z
			"/>
		<path style="fill:#B3F4FF;" d="M934.218,904.567l-97.314,238.738h-75.722l96.269-236.158c3.72-1.623,7.772-2.493,11.936-2.501
			L934.218,904.567z"/>
		<path style="fill:#B3F4FF;" d="M986.559,918.03l-91.821,225.275h-37.865l97.33-238.762l7.258-0.008
			C971.948,904.519,981.185,909.886,986.559,918.03z"/>
		<rect x="1017.923" y="770.116" style="fill:#9B453A;" width="1084.907" height="50.153"/>
		<rect x="1018.923" y="1249.868" style="fill:#9B453A;" width="1190.009" height="50.153"/>
		<path style="fill:#9B453A;" d="M1504.188,1271.834h-99.202c-1.401,0-2.537-1.136-2.537-2.537V802.532
			c0-1.401,1.136-2.537,2.537-2.537h99.202c1.401,0,2.537,1.136,2.537,2.537v466.765
			C1506.725,1270.698,1505.589,1271.834,1504.188,1271.834z M1407.522,1266.76h94.128V805.068h-94.128V1266.76z"/>
		<path style="fill:#9B453A;" d="M1245.504,1271.834h-99.202c-1.401,0-2.536-1.136-2.536-2.537V802.532
			c0-1.401,1.136-2.537,2.536-2.537h99.202c1.401,0,2.537,1.136,2.537,2.537v466.765
			C1248.041,1270.698,1246.905,1271.834,1245.504,1271.834z M1148.839,1266.76h94.129V805.068h-94.129V1266.76z"/>
		<path style="fill:#9B453A;" d="M1762.87,1271.834h-99.202c-1.401,0-2.537-1.136-2.537-2.537V802.532
			c0-1.401,1.136-2.537,2.537-2.537h99.202c1.401,0,2.537,1.136,2.537,2.537v466.765
			C1765.407,1270.698,1764.271,1271.834,1762.87,1271.834z M1666.205,1266.76h94.128V805.068h-94.128V1266.76z"/>
		<path style="fill:#9B453A;" d="M2021.553,1271.834h-99.201c-1.401,0-2.537-1.136-2.537-2.537V802.532
			c0-1.401,1.136-2.537,2.537-2.537h99.201c1.401,0,2.537,1.136,2.537,2.537v466.765
			C2024.09,1270.698,2022.954,1271.834,2021.553,1271.834z M1924.889,1266.76h94.127V805.068h-94.127V1266.76z"/>
		<path style="fill:#997243;" d="M739.94,1165.749h-39.456c-8.251,0-14.94-6.689-14.94-14.94v-15.009
			c0-8.251,6.689-14.94,14.94-14.94h39.456c8.251,0,14.94,6.689,14.94,14.94v15.009
			C754.88,1159.06,748.191,1165.749,739.94,1165.749z"/>
		<path style="fill:#997243;" d="M913.929,1200.842c-1.105,0-2-0.896-2-2s0.895-2,2-2c32.782,0,42.497-7.416,45.327-11.246h-45.327
			c-1.105,0-2-0.896-2-2s0.895-2,2-2h48.448c0.561,0,1.096,0.235,1.475,0.649s0.566,0.968,0.517,1.527
			C964.214,1185.52,961.486,1200.842,913.929,1200.842z"/>
		
			<ellipse transform="matrix(0.7071 -0.7071 0.7071 0.7071 -556.3851 1575.4277)" style="fill:#30313C;" cx="1623.517" cy="1459.33" rx="131.192" ry="131.192"/>
		
			<ellipse transform="matrix(0.9871 -0.1602 0.1602 0.9871 -212.795 278.9021)" style="fill:#F1F3F2;" cx="1623.517" cy="1459.33" rx="92.142" ry="92.142"/>
		<path style="fill:#30313C;" d="M1737.017,1462.992v-7.325h-83.466c-0.678-5.613-2.89-10.749-6.207-14.983l59.02-59.021
			l-5.181-5.181l-59.02,59.02c-4.234-3.318-9.371-5.53-14.984-6.208v-80.621h-7.325v80.621c-5.613,0.678-10.75,2.89-14.984,6.208
			l-59.02-59.02l-5.181,5.181l59.02,59.021c-3.318,4.233-5.53,9.37-6.207,14.983h-83.466v7.325h83.465
			c0.678,5.613,2.89,10.751,6.208,14.984l-59.021,59.021l5.181,5.18l59.021-59.021c4.234,3.318,9.37,5.53,14.983,6.207v86.312h7.325
			v-86.312c5.613-0.677,10.75-2.889,14.983-6.207l59.021,59.021l5.181-5.18l-59.021-59.021c3.318-4.234,5.53-9.371,6.208-14.984
			H1737.017z"/>
		
			<ellipse transform="matrix(0.7071 -0.7071 0.7071 0.7071 -456.4695 1816.6455)" style="fill:#30313C;" cx="1964.65" cy="1459.33" rx="131.192" ry="131.192"/>
		
			<ellipse transform="matrix(0.994 -0.1091 0.1091 0.994 -147.5061 223.0897)" style="fill:#F1F3F2;" cx="1964.65" cy="1459.33" rx="92.142" ry="92.142"/>
		<path style="fill:#30313C;" d="M2078.15,1462.992v-7.325h-83.466c-0.678-5.613-2.89-10.749-6.207-14.983l59.02-59.021
			l-5.181-5.181l-59.02,59.02c-4.234-3.318-9.371-5.53-14.984-6.208v-80.621h-7.325v80.621c-5.613,0.678-10.75,2.89-14.984,6.208
			l-59.02-59.02l-5.181,5.181l59.02,59.021c-3.318,4.233-5.53,9.37-6.207,14.983h-83.466v7.325h83.465
			c0.678,5.613,2.89,10.751,6.208,14.984l-59.021,59.021l5.181,5.18l59.021-59.021c4.234,3.318,9.37,5.53,14.983,6.207v86.312h7.325
			v-86.312c5.613-0.677,10.75-2.889,14.983-6.207l59.021,59.021l5.181-5.18l-59.021-59.021c3.318-4.234,5.53-9.371,6.208-14.984
			H2078.15z"/>
		<path style="fill:#30313C;" d="M1409.864,1467.411h-303.199c-21.948,0-39.741-17.793-39.741-39.741l0,0
			c0-21.948,17.792-39.741,39.741-39.741h303.199c21.948,0,39.741,17.793,39.741,39.741l0,0
			C1449.605,1449.619,1431.812,1467.411,1409.864,1467.411z"/>
	</g>
	<g id="_x32_">
		<path style="fill:#9B453A;" d="M477.072,1318.249c0,0-6.786-18.144-33.46-28.472
			C443.612,1289.777,442.797,1325.037,477.072,1318.249z"/>
		<path style="fill:#F69D85;" d="M304.963,1277.573c6.089-8.536,17.945-10.52,26.481-4.432l82.296,58.7l48.408-49.721
			c4.132-4.252,10.858-4.984,15.847-1.45c5.517,3.908,6.822,11.549,2.914,17.066l-50.385,71.134l-0.034,0.047
			c-5.617,7.874-16.553,9.705-24.428,4.088l-1.156-0.824l-95.512-68.127C300.858,1297.966,298.874,1286.11,304.963,1277.573z"/>
		<path style="fill:#F69D85;" d="M458.056,1287.362c0,0,7.798-16.587,19.662-20.653c4.78-1.638,8.974,0,8.974,0
			s-5.432,11.465,2.034,18.479c0,0,2.854,7.038-11.008,15.697C470.622,1305.318,464.761,1297.327,458.056,1287.362z"/>
		<path style="fill:#AF5945;" d="M477.163,1287.58c-0.051,0-0.104-0.007-0.156-0.022c-2.3-0.667-5.095-0.029-5.123-0.022
			c-0.197,0.047-0.408-0.02-0.544-0.174c-0.135-0.154-0.175-0.37-0.103-0.561c1.574-4.217,1.378-9.11,1.376-9.159
			c-0.013-0.306,0.224-0.566,0.531-0.58c0.299-0.012,0.566,0.224,0.58,0.531c0.009,0.195,0.181,4.519-1.134,8.691
			c1.112-0.155,3.009-0.292,4.728,0.207c0.295,0.085,0.464,0.394,0.379,0.689C477.625,1287.423,477.403,1287.58,477.163,1287.58z"/>
		<path style="fill:#F69D85;" d="M213.568,1456.97c14.903,50.408,4.244,102.04,13.303,153.749l-0.041-4.035
			c-2.323,53.578-10.799,107.18-15.557,160.56c-0.413,7.677-2.327,15.21,0.426,23.193c4.457,14.448,25.693,16.319,32.729,3.154
			c4.227-7.309,3.787-15.068,4.848-22.683c1.159-10.975,2.258-23.342,3.196-34.419c2.79-43.304,17.84-87.199,22.626-130.191
			c-3.134-52.404,5.385-105.01,8.239-157.498C284.147,1392.865,199.891,1402.494,213.568,1456.97z"/>
		<path style="fill:#333647;" d="M209.307,1804.341c0.254,0.972,0.68,1.871,1.244,2.66c1.399,1.963,3.652,3.251,6.209,3.264
			l58.491,0.206c2.912,0.013,5.127-1.661,6.241-3.902c0.344-0.68,0.582-1.418,0.704-2.179c0.372-2.282-0.285-4.759-2.288-6.585
			l-8.066-7.349l-8.67-7.899c-27.073,4.042-52.954-3.274-52.954-3.274l-0.661,12.771l-0.505,9.78
			C209.01,1802.705,209.098,1803.546,209.307,1804.341z"/>
		<path style="fill:#333647;" d="M268.019,1786.972c0,0-12.222-11.248-15.859-13.937c-3.637-2.689-12.772,0.653-11.778,4.38
			c0.993,3.728,7.286,9.637,7.286,9.637L268.019,1786.972z"/>
		<path style="fill:#FFFFFF;" d="M258.818,1794.059c0.183,0,0.36-0.1,0.448-0.275c2.677-5.246,8.772-6.307,8.834-6.317
			c0.274-0.045,0.46-0.304,0.415-0.578c-0.045-0.275-0.304-0.459-0.577-0.415c-0.27,0.044-6.655,1.144-9.568,6.853
			c-0.126,0.248-0.028,0.55,0.22,0.677C258.663,1794.042,258.741,1794.059,258.818,1794.059z"/>
		<path style="fill:#FFFFFF;" d="M254.55,1790.095c0.183,0,0.36-0.1,0.449-0.274c2.677-5.246,8.772-6.307,8.833-6.317
			c0.274-0.045,0.46-0.304,0.415-0.578c-0.045-0.275-0.304-0.458-0.577-0.415c-0.27,0.044-6.655,1.144-9.568,6.853
			c-0.126,0.248-0.028,0.55,0.22,0.677C254.395,1790.077,254.473,1790.095,254.55,1790.095z"/>
		<path style="fill:#FFFFFF;" d="M250.465,1786.406c0.183,0,0.36-0.1,0.448-0.275c2.677-5.246,8.772-6.306,8.834-6.316
			c0.274-0.045,0.46-0.304,0.415-0.578c-0.045-0.275-0.303-0.459-0.577-0.415c-0.27,0.044-6.655,1.144-9.568,6.852
			c-0.126,0.247-0.028,0.55,0.22,0.677C250.31,1786.388,250.388,1786.406,250.465,1786.406z"/>
		<path style="fill:#9B453A;" d="M207.787,1394.314c0,0-11.22,19.893-35.441,23.483
			C172.346,1417.798,177.622,1390.547,207.787,1394.314z"/>
		
			<rect x="268.259" y="1230.305" transform="matrix(0.033 -0.9995 0.9995 0.033 -961.6473 1496.9753)" style="fill:#F69D85;" width="48.988" height="30.248"/>
		<path style="fill:#FF593A;" d="M307.426,1259.413c50.257-2.347,102.744,65.434,102.744,65.434s27.036-28.21,33.443-35.07
			c0,0,7.613,19.553,33.46,28.472c0,0-27.524,61.433-59.31,67.503c-38.529,7.357-90.065-39.013-90.065-39.013L307.426,1259.413z"/>
		<path style="fill:#D1836B;" d="M283.276,1245.113c12.507,7.082,24.419,6.112,24.419,6.112l0.313-9.484L283.276,1245.113z"/>
		<path style="fill:#F69D85;" d="M300.134,1248.594L300.134,1248.594c17.548-1.535,30.757-17.417,29.505-35.474l-1.177-16.972
			c-1.253-18.057-16.493-31.452-34.041-29.917h0c-17.548,1.535-30.757,17.417-29.505,35.474l1.177,16.972
			C267.346,1236.734,282.587,1250.129,300.134,1248.594z"/>
		<path style="fill:#F69D85;" d="M254.665,1213.092c0.333,4.797,4.381,8.355,9.043,7.947c4.661-0.408,8.17-4.627,7.837-9.423
			s-4.381-8.355-9.043-7.947C257.841,1204.076,254.332,1208.295,254.665,1213.092z"/>
		<path style="fill:#F69D85;" d="M320.822,1208.417c0.333,4.797,4.381,8.355,9.043,7.947c4.661-0.408,8.17-4.627,7.838-9.423
			c-0.333-4.797-4.381-8.355-9.043-7.947C323.998,1199.401,320.489,1203.62,320.822,1208.417z"/>
		<path style="fill:#F69D85;" d="M285.379,1441.248l1.835,0.06c27.923,0.921,51.33-21.719,52.281-50.568l2.638-79.982
			c0.951-28.849-20.913-52.982-48.836-53.903l-1.835-0.061c-23.316-0.769-51.33,21.719-52.282,50.568l-2.637,79.982
			C235.591,1416.194,257.456,1440.327,285.379,1441.248z"/>
		<path style="fill:#30313C;" d="M292.318,1204.947c0.168,2.439-0.675,4.501-1.883,4.606c-1.208,0.105-2.324-1.787-2.492-4.225
			c-0.168-2.439,0.675-4.501,1.883-4.606C291.034,1200.617,292.15,1202.508,292.318,1204.947z"/>
		<path style="fill:#30313C;" d="M311.501,1203.279c0.168,2.439-0.675,4.501-1.883,4.606c-1.208,0.105-2.324-1.787-2.492-4.225
			c-0.168-2.439,0.675-4.501,1.883-4.606S311.333,1200.84,311.501,1203.279z"/>
		<path style="fill:#E58A76;" d="M279.214,1214.859c-0.15,1.747,1.234,3.279,3.09,3.422c1.856,0.143,3.482-1.157,3.632-2.904
			c0.15-1.747-1.234-3.279-3.09-3.422S279.364,1213.112,279.214,1214.859z"/>
		<path style="fill:#E58A76;" d="M315.05,1213.17c-0.15,1.747,1.234,3.279,3.09,3.422c1.856,0.143,3.482-1.157,3.632-2.904
			c0.15-1.747-1.234-3.279-3.09-3.422C316.826,1210.123,315.2,1211.423,315.05,1213.17z"/>
		<path style="fill:#AF5945;" d="M329.587,1212.79c0.211-0.07,0.357-0.276,0.342-0.508c-0.161-2.575,1.282-3.118,2.677-3.642
			c1.162-0.437,2.609-0.981,1.915-2.948c-1.279-3.627-5.646-3.518-5.69-3.516c-0.275,0.01-0.495,0.242-0.485,0.52
			c0.009,0.277,0.242,0.495,0.519,0.485c0.154-0.005,3.676-0.078,4.707,2.845c0.349,0.991-0.039,1.19-1.32,1.672
			c-1.407,0.529-3.534,1.328-3.327,4.646c0.017,0.277,0.256,0.488,0.533,0.471C329.503,1212.813,329.546,1212.804,329.587,1212.79z"
			/>
		<path style="fill:#AF5945;" d="M262.99,1218.042c0.172-0.057,0.307-0.206,0.337-0.397c0.533-3.295-1.513-4.257-2.866-4.893
			c-1.248-0.587-1.588-0.798-1.143-1.758c1.319-2.845,4.831-2.499,4.98-2.483c0.276,0.031,0.524-0.169,0.555-0.445
			c0.03-0.276-0.168-0.524-0.443-0.555c-0.178-0.02-4.376-0.448-6.003,3.059c-0.886,1.91,0.508,2.565,1.627,3.092
			c1.333,0.627,2.713,1.275,2.301,3.823c-0.045,0.274,0.142,0.532,0.416,0.577C262.834,1218.075,262.915,1218.067,262.99,1218.042z"
			/>
		<path style="fill:#F69D85;" d="M277.583,1456.97c14.903,50.408,25.167,102.04,34.227,153.749l-0.041-4.035
			c-2.323,53.578-10.799,107.18-15.557,160.56c-0.413,7.677-2.327,15.21,0.426,23.193c4.457,14.448,25.693,16.319,32.729,3.154
			c4.227-7.309,3.787-15.068,4.848-22.683c1.159-10.975,2.258-23.342,3.196-34.419c2.79-43.304,7.379-87.199,12.164-130.191
			c-3.134-52.404-5.076-105.01-2.222-157.498C348.163,1392.865,263.906,1402.494,277.583,1456.97z"/>
		<path style="fill:#333647;" d="M294.246,1804.341c0.254,0.972,0.68,1.871,1.244,2.66c1.399,1.963,3.652,3.251,6.209,3.264
			l58.491,0.206c2.912,0.013,5.127-1.661,6.241-3.902c0.344-0.68,0.582-1.418,0.704-2.179c0.372-2.282-0.285-4.759-2.288-6.585
			l-8.066-7.349l-8.669-7.899c-27.073,4.042-52.954-3.274-52.954-3.274l-0.661,12.771l-0.505,9.78
			C293.948,1802.705,294.036,1803.546,294.246,1804.341z"/>
		<path style="fill:#333647;" d="M352.958,1786.972c0,0-12.222-11.248-15.859-13.937c-3.637-2.689-12.772,0.653-11.778,4.38
			c0.993,3.728,7.286,9.637,7.286,9.637L352.958,1786.972z"/>
		<path style="fill:#404660;" d="M294.429,1804.905c1.044,2.951,3.783,5.414,6.87,5.431l58.339,0.654
			c0.009,0,0.985-0.444,0.994-0.444c3.56,0,5.736-3.008,6.387-5.59L294.429,1804.905z"/>
		<path style="fill:#404660;" d="M367.142,1804.364c0.384-2.351-0.214-4.644-1.97-6.245l-7.962-7.273
			c-1.487,0.341-9.732,3.476-9.897,14.096l9.008,2.809l10.268-1.56C366.854,1805.613,367.04,1804.999,367.142,1804.364z"/>
		<path style="fill:#404660;" d="M294.478,1792.472l-0.485,9.409c-0.042,0.818,0.038,1.62,0.24,2.384c0,0,0,0.001,0,0.001
			c0.212,0.81,0.548,1.57,1.001,2.264l14.159-1.625C308.864,1794.012,297.069,1792.638,294.478,1792.472z"/>
		<path style="fill:#404660;" d="M209.481,1804.905c1.044,2.951,3.783,5.414,6.87,5.431l58.339,0.654
			c0.009,0,0.985-0.444,0.994-0.444c3.56,0,5.736-3.008,6.387-5.59L209.481,1804.905z"/>
		<path style="fill:#404660;" d="M282.194,1804.364c0.384-2.351-0.214-4.644-1.97-6.245l-7.962-7.273
			c-1.487,0.341-9.732,3.476-9.897,14.096l9.008,2.809l10.268-1.56C281.906,1805.613,282.092,1804.999,282.194,1804.364z"/>
		<path style="fill:#404660;" d="M209.531,1792.472l-0.485,9.409c-0.042,0.818,0.038,1.62,0.24,2.384c0,0,0,0.001,0,0.001
			c0.212,0.81,0.548,1.57,1.001,2.264l14.159-1.625C223.917,1794.012,212.122,1792.638,209.531,1792.472z"/>
		<path style="fill:#FFFFFF;" d="M343.757,1794.059c0.183,0,0.36-0.1,0.449-0.275c2.676-5.246,8.772-6.307,8.833-6.317
			c0.274-0.045,0.46-0.304,0.415-0.578c-0.045-0.275-0.304-0.459-0.577-0.415c-0.27,0.044-6.655,1.144-9.568,6.853
			c-0.126,0.248-0.028,0.55,0.22,0.677C343.602,1794.042,343.68,1794.059,343.757,1794.059z"/>
		<path style="fill:#FFFFFF;" d="M339.488,1790.095c0.183,0,0.36-0.1,0.449-0.274c2.676-5.246,8.772-6.307,8.833-6.317
			c0.274-0.045,0.46-0.304,0.415-0.578c-0.045-0.275-0.304-0.458-0.577-0.415c-0.27,0.044-6.655,1.144-9.567,6.853
			c-0.126,0.248-0.028,0.55,0.22,0.677C339.333,1790.077,339.412,1790.095,339.488,1790.095z"/>
		<path style="fill:#FFFFFF;" d="M335.404,1786.406c0.183,0,0.36-0.1,0.449-0.275c2.677-5.246,8.772-6.306,8.833-6.316
			c0.274-0.045,0.46-0.304,0.415-0.578c-0.045-0.275-0.303-0.459-0.577-0.415c-0.27,0.044-6.655,1.144-9.568,6.852
			c-0.126,0.247-0.028,0.55,0.22,0.677C335.249,1786.388,335.327,1786.406,335.404,1786.406z"/>
		<path style="fill:#FF593A;" d="M307.426,1259.413c0,0,33.385,9.434,43.375,51.664c11.21,47.385,8.989,101.905,8.989,148.986
			c0,0-20.671-0.62-72.756-0.887c-62.214-0.319-76.55,0.887-76.55,0.887s-1.445-20.26-0.244-68.464
			c0.596-23.947,5.224-126.368,66.954-133.181C277.194,1258.418,301.433,1272.906,307.426,1259.413z"/>
		<path style="fill:#9B453A;" d="M300.505,1276.217c1.246,0,2.458-0.09,3.627-0.281c14.313-2.333,14.322-15.803,14.32-15.939
			c-0.004-0.365-0.302-0.658-0.666-0.658c-0.002,0-0.005,0-0.007,0c-0.368,0.004-0.663,0.305-0.659,0.673
			c0.005,0.508-0.038,12.463-13.202,14.609c-13.918,2.269-33.924-10.471-39.465-18.233c-0.214-0.299-0.63-0.369-0.93-0.155
			c-0.299,0.214-0.369,0.63-0.155,0.929C269.229,1265.371,286.841,1276.217,300.505,1276.217z"/>
		<path style="fill:#AF5945;" d="M301.082,1218.313c0.004-0.001,0.007-0.002,0.011-0.004c0.44-0.158,4.294-1.604,3.901-3.737
			c-0.334-1.814-3.872-9.696-4.023-10.03c-0.114-0.253-0.418-0.365-0.665-0.252c-0.254,0.114-0.366,0.411-0.252,0.665
			c1.257,2.796,3.701,8.443,3.95,9.799c0.188,1.021-2.109,2.198-3.251,2.609c-0.261,0.094-0.397,0.382-0.303,0.643
			C300.542,1218.264,300.824,1218.399,301.082,1218.313z"/>
		<path style="fill:#F69D85;" d="M127.773,1321.833l1.038-0.57l106.978-58.689c9.193-5.043,20.733-1.679,25.777,7.514
			c5.043,9.193,1.679,20.733-7.514,25.777l-88.863,48.75l46.585,69.845c3.37,5.041,2.551,11.923-2.143,16.01
			c-5.094,4.435-12.819,3.902-17.255-1.193l-69.522-79.845c-0.804-0.935-1.589-2.038-2.206-3.162
			C115.868,1337.556,119.058,1326.615,127.773,1321.833z"/>
		<path style="fill:#FF593A;" d="M277.194,1258.418c0,0-25.836-6.688-55.073,3.241c-27.547,9.356-103.643,39.367-108.771,69.132
			c-5.568,32.321,58.996,87.006,58.996,87.006s10.301-21.416,35.441-23.483c0,0-17.876-29.576-26.335-42.402
			c0,0,53.237-21.12,72.317-37.638C272.848,1297.756,277.194,1258.418,277.194,1258.418z"/>
		<path style="fill:#3E8EDD;" d="M218.461,1608.601c0,0-10.688-101.972-10.805-139.24c0-0.004-1.833-51.057,2.871-85.779
			c0,0,49.577,10.375,53.383-39.355c0,0,3.974-43.377-3.831-88.013c0,0,8.625-2.068,14.334,1.613c0,0,11.279,45.693,10.453,86.299
			l49.809-0.238c-4.186-55.2-21.847-84.462-21.847-84.462c8.593-2.447,15.518,2.698,15.518,2.698
			c21.574,34.027,28.137,81.66,28.137,81.66c8.401,42.758,10.762,128.915,10.762,128.915s3.248,95.623,1.019,127.676
			c-1.787,25.702-24.506,161.29-24.506,161.29s-25.781,15.563-55.572-1.14l12.598-151.924l-9.36-42.327
			c-1.334,16.339-2.331,30.078-2.591,37.405c-0.916,25.748-30.014,157.987-30.014,157.987s-25.781,15.563-55.571-1.14
			L218.461,1608.601z"/>
		<path style="fill:#2A3047;" d="M259.888,1194.771c-2.63-17.135,20.036-29.705,20.036-29.705
			c9.877-14.89,26.697-11.984,33.255-9.553c6.752,2.503,15.031,8.18,17.829,20.635c2.127,9.472-2.349,22.846-2.349,22.846
			c-8.347-6.399-14.285-11.288-26.746-12.672c-9.979-1.108-16.061-7.217-19.045-11.24c0.075,3.34-0.62,7.373-2.945,11.882
			c-4.453,8.636-14.887,16.485-14.887,16.485S260.649,1199.723,259.888,1194.771z"/>
		<path style="fill:#D1836B;" d="M291.201,1225.236c0.439,1.019,1.263,2.097,2.524,2.985c2.791,1.96,8.46,2.253,11.082,0.815
			c0.622-0.342,1.155-0.785,1.589-1.272c0.529-0.607,0.91-1.286,1.107-1.931c0.013-0.018,0.014-0.04,0.021-0.057
			c0.286-1.013,0.117-1.929-0.633-2.313c-1.625-0.84-6.238,0.295-9.26-0.806c-3.25-1.18-5.588-1.741-6.457-0.488
			c-0.1,0.147-0.18,0.311-0.235,0.497c-0.079,0.228-0.115,0.485-0.121,0.763C290.806,1223.975,290.93,1224.596,291.201,1225.236z"/>
		<path style="fill:#305777;" d="M291.403,1566.529c0.26,0,0.48-0.2,0.501-0.464c1.289-16.353,2.567-41.28,2.58-41.533
			c0.014-0.277-0.199-0.514-0.477-0.528c-0.266-0.014-0.514,0.199-0.528,0.477c-0.013,0.25-1.291,25.165-2.578,41.505
			c-0.022,0.277,0.185,0.519,0.462,0.541C291.377,1566.528,291.39,1566.529,291.403,1566.529z"/>
		<path style="fill:#305777;" d="M318.389,1756.864c3.008,0,5.826-0.182,8.354-0.453c10.907-1.167,18.899-4.191,18.979-4.221
			c0.259-0.099,0.389-0.39,0.29-0.65c-0.099-0.26-0.391-0.388-0.65-0.29c-0.078,0.03-7.97,3.013-18.753,4.163
			c-9.924,1.058-24.4,0.737-37.015-6.802c-0.238-0.143-0.547-0.065-0.689,0.174c-0.143,0.238-0.065,0.547,0.174,0.689
			C298.716,1755.236,309.398,1756.864,318.389,1756.864z"/>
		<path style="fill:#305777;" d="M324.064,1746.904c13.294,0,22.919-2.902,23.087-2.954c0.265-0.082,0.414-0.364,0.331-0.629
			c-0.082-0.265-0.364-0.415-0.629-0.331c-0.291,0.09-29.393,8.849-56.288-4.455c-0.25-0.123-0.551-0.021-0.674,0.228
			c-0.123,0.249-0.021,0.551,0.228,0.674C301.86,1745.244,314.011,1746.904,324.064,1746.904z"/>
		<path style="fill:#F69D85;" d="M194.996,1431.548c0,0,11.76,6.769,22.786,4.652c11.025-2.117,14.928-5.516,17.201-9.846
			s-16.513-11.895-23.915-10.972C203.666,1416.304,195.498,1420.454,194.996,1431.548z"/>
		<path style="fill:#F69D85;" d="M217.934,1435.975c5.847-0.396,11.779,0.407,17.461,1.866c2.964,0.255,7.525,4.14,9.354,0.218
			c2.092-5.506-21.534-11.503-25.857-11.797C207.37,1423.732,208.312,1439.082,217.934,1435.975z"/>
		<path style="fill:#F69D85;" d="M222.225,1432.77c5.464-1.549,11.397-1.461,17.019-0.547c3.005-0.017,7.894,3.62,9.408-0.505
			c1.139-4.386-11.014-6.784-14.236-7.873c-4.664-1.036-9.549-1.621-14.352-1.091
			C213.526,1424.195,215.665,1434.154,222.225,1432.77z"/>
		<path style="fill:#F69D85;" d="M221.882,1427.9c8.262-2.921,17.632-3.054,25.934-0.106c3.052,1.08,4.994-3.546,2.113-4.974
			c-3.409-1.885-7.159-3.335-10.966-4.242c-6.625-1.473-13.598-1.8-20.281-0.437C211.508,1419.896,215.053,1430.737,221.882,1427.9z
			"/>
		<path style="fill:#F69D85;" d="M210.966,1422.002c8.67-3.102,18.178-4.673,27.346-3.497c3.033,0.411,5.993,1.212,8.797,2.427
			c1.389,0.652,3.058,0.023,3.656-1.394c1.959-6.054-17.443-9.033-21.679-9.17c-7.286-0.383-14.603,0.22-21.683,1.997
			C200.374,1414.416,204.277,1425.02,210.966,1422.002z"/>
		<path style="fill:#AF5945;" d="M238.601,1432.383c0.109-0.021,0.206-0.092,0.256-0.2c0.082-0.177,0.004-0.387-0.173-0.469
			c-0.051-0.024-5.192-2.363-12.397-2.875c-0.195-0.013-0.364,0.133-0.378,0.328c-0.014,0.195,0.133,0.364,0.328,0.378
			c7.069,0.502,12.101,2.788,12.151,2.812C238.456,1432.388,238.531,1432.396,238.601,1432.383z"/>
		<path style="fill:#AF5945;" d="M242.059,1426.584c0.116-0.022,0.219-0.102,0.265-0.221c0.07-0.182-0.021-0.387-0.203-0.457
			c-0.058-0.022-5.864-2.233-13.771-3.143c-0.195-0.021-0.37,0.117-0.392,0.311c-0.022,0.194,0.117,0.37,0.311,0.392
			c7.812,0.898,13.54,3.078,13.597,3.1C241.929,1426.591,241.996,1426.596,242.059,1426.584z"/>
		<path style="fill:#AF5945;" d="M242.28,1419.784c0.13-0.025,0.241-0.121,0.276-0.258c0.05-0.189-0.063-0.383-0.252-0.432
			c-0.067-0.018-6.746-1.766-12.654-2.271c-0.195-0.017-0.366,0.128-0.383,0.323c-0.017,0.195,0.128,0.366,0.323,0.383
			c5.848,0.499,12.468,2.232,12.534,2.25C242.176,1419.792,242.23,1419.793,242.28,1419.784z"/>
		<path style="fill:#9B453A;" d="M472.075,1328.995c0.175-0.033,0.326-0.159,0.385-0.34c0.085-0.265-0.061-0.548-0.325-0.633
			c-0.269-0.086-26.99-8.882-36.47-29.58c-0.116-0.253-0.413-0.364-0.667-0.248c-0.253,0.116-0.363,0.414-0.248,0.667
			c9.667,21.106,36.803,30.031,37.077,30.119C471.91,1329.006,471.995,1329.01,472.075,1328.995z"/>
		<path style="fill:#9B453A;" d="M401.143,1335.461c0.132-0.025,0.254-0.103,0.332-0.226c2.362-3.759,8.973-9.958,9.039-10.02
			c0.203-0.19,0.213-0.508,0.024-0.711c-0.19-0.203-0.508-0.214-0.711-0.024c-0.275,0.257-6.772,6.35-9.203,10.219
			c-0.148,0.235-0.077,0.546,0.158,0.693C400.893,1335.463,401.022,1335.484,401.143,1335.461z"/>
		<path style="fill:#9B453A;" d="M164.667,1411.328c0.176-0.034,0.328-0.16,0.386-0.344c3.958-12.603,13.676-19.107,21.131-22.344
			c8.104-3.519,15.344-4.048,15.416-4.053c0.279-0.022,0.487-0.259,0.467-0.536c-0.019-0.277-0.259-0.486-0.536-0.468
			c-0.075,0.005-7.487,0.547-15.748,4.134c-7.648,3.32-17.619,10-21.691,22.966c-0.083,0.265,0.064,0.547,0.329,0.631
			C164.504,1411.339,164.588,1411.343,164.667,1411.328z"/>
		<path style="fill:#9B453A;" d="M181.546,1352.406c0.057-0.011,0.113-0.032,0.165-0.063c0.238-0.144,0.314-0.453,0.171-0.69
			c-0.203-0.337-5.029-8.298-9.471-12.193c-0.209-0.183-0.526-0.163-0.71,0.047c-0.183,0.209-0.162,0.526,0.046,0.71
			c4.325,3.791,9.224,11.875,9.273,11.956C181.133,1352.357,181.345,1352.445,181.546,1352.406z"/>
		<path style="fill:#9B453A;" d="M214.699,1337.816c0.047-0.009,0.093-0.025,0.137-0.047c0.189-0.098,19.015-9.842,32.854-18.219
			c0.238-0.144,0.314-0.453,0.17-0.691c-0.144-0.238-0.455-0.314-0.691-0.17c-13.81,8.359-32.607,18.089-32.795,18.186
			c-0.247,0.128-0.343,0.431-0.216,0.678C214.263,1337.756,214.486,1337.857,214.699,1337.816z"/>
		<path style="fill:#AF5945;" d="M315.532,1197.345c0.211,0,0.421-0.084,0.575-0.251c0.294-0.318,0.277-0.812-0.04-1.107
			c-0.202-0.188-5.021-4.576-11.518-1.89c-0.4,0.165-0.591,0.624-0.425,1.025c0.165,0.401,0.625,0.591,1.025,0.425
			c5.547-2.292,9.678,1.43,9.851,1.589C315.15,1197.276,315.341,1197.345,315.532,1197.345z"/>
		<path style="fill:#AF5945;" d="M283.346,1198.349c0.184,0,0.369-0.064,0.518-0.195c5.196-4.564,10.559-2.198,10.785-2.095
			c0.394,0.179,0.859,0.007,1.04-0.386c0.181-0.393,0.01-0.857-0.382-1.039c-0.262-0.121-6.496-2.914-12.477,2.341
			c-0.326,0.286-0.358,0.782-0.072,1.107C282.912,1198.259,283.129,1198.349,283.346,1198.349z"/>
		<path style="fill:#FFFFFF;" d="M290.94,1222.666l0.461,1.552c8.374,3.616,15.433,1.961,15.433,1.961l0.669-0.346
			c0.013-0.018,0.014-0.04,0.021-0.057c0.286-1.013,0.117-1.929-0.633-2.313c-1.625-0.84-6.238,0.295-9.26-0.806
			c-3.25-1.18-5.588-1.741-6.457-0.488C291.076,1222.316,290.995,1222.48,290.94,1222.666z"/>
		<path style="fill:#AF5945;" d="M297.806,1222.186c1.53,0.556,3.555,0.505,5.341,0.459c1.667-0.042,3.107-0.079,3.974,0.369l0,0
			c0.919,0.474,1.258,1.584,0.885,2.903c-0.22,0.754-0.646,1.507-1.234,2.181c-0.497,0.558-1.076,1.021-1.722,1.377
			c-2.896,1.588-8.757,1.162-11.614-0.843c-1.571-1.106-2.333-2.349-2.696-3.199c-0.291-0.686-0.438-1.382-0.426-2.01
			c0.008-0.597,0.163-1.13,0.449-1.542c0.315-0.456,0.748-0.73,1.301-0.854C293.338,1220.743,295.246,1221.257,297.806,1222.186z
			 M304.565,1228.594c0.545-0.3,1.035-0.692,1.452-1.161c0.482-0.553,0.846-1.192,1.021-1.794c0.089-0.314,0.325-1.368-0.379-1.731
			c0,0,0,0,0,0c-0.638-0.329-2.022-0.294-3.486-0.257c-1.876,0.048-4.002,0.102-5.711-0.519c-2.632-0.956-5.166-1.698-5.872-0.676
			c-0.172,0.247-0.265,0.586-0.27,0.985c-0.01,0.491,0.11,1.044,0.345,1.599c0.311,0.729,0.972,1.801,2.349,2.77
			c2.09,1.467,6.104,2.003,8.903,1.376C303.537,1229.046,304.099,1228.85,304.565,1228.594z"/>
		<path style="fill:#305777;" d="M474.154,1710.882c3.067,0,5.553-2.486,5.553-5.552v-501.101c0-3.067-2.486-5.553-5.553-5.553
			c-3.067,0-5.553,2.486-5.553,5.553v501.101C468.601,1708.396,471.087,1710.882,474.154,1710.882z"/>
		<path style="fill:#F69D85;" d="M457.633,1285.74c1.361-5.361,8.705-29.119,16.024-25.05c3.573,3.366-3.659,11.732-3.619,16.371
			c-2.424,5.586,1.576,15.13-6.78,15.88C459.505,1293.063,456.642,1289.336,457.633,1285.74z"/>
		<path style="fill:#F69D85;" d="M487.766,1284.078c1.509-0.634,2.382-2.306,1.966-3.923c-0.228-0.885-0.796-1.575-1.526-1.977
			c1.051-0.797,1.59-2.177,1.245-3.517c-0.243-0.944-0.879-1.659-1.68-2.045c1.129-0.781,1.727-2.209,1.369-3.598
			c-0.448-1.74-2.085-2.656-3.88-2.71c-2.046-0.061-6.53,0.776-8.905,2.324c-1.505,0.981-3.086,3.159-2.638,4.899
			c0.243,0.944,0.879,1.659,1.68,2.045c-1.129,0.78-1.727,2.209-1.369,3.598v0c0.228,0.885,0.797,1.575,1.526,1.976
			c-1.051,0.797-1.59,2.177-1.246,3.517c0.178,0.693,0.57,1.26,1.079,1.671c-1.509,0.634-2.382,2.306-1.966,3.923
			c0.448,1.739,2.208,2.741,3.932,2.236l9.181-2.686c1.724-0.504,2.758-2.323,2.31-4.063
			C488.667,1285.056,488.275,1284.488,487.766,1284.078z"/>
		<path style="fill:#AF5945;" d="M475.388,1286.861c0.075,0,0.152-0.016,0.224-0.051c6.947-3.301,11.989-2.233,12.039-2.222
			c0.281,0.064,0.561-0.114,0.625-0.396c0.063-0.281-0.113-0.561-0.394-0.625c-0.218-0.049-5.422-1.17-12.719,2.297
			c-0.261,0.124-0.372,0.436-0.248,0.697C475.005,1286.751,475.192,1286.861,475.388,1286.861z"/>
		<path style="fill:#AF5945;" d="M475.554,1281.674c0.112,0,0.225-0.036,0.32-0.11c4.797-3.727,12.193-2.875,12.268-2.866
			c0.285,0.036,0.548-0.169,0.582-0.456c0.035-0.287-0.169-0.547-0.455-0.583c-0.32-0.04-7.895-0.917-13.037,3.079
			c-0.228,0.177-0.269,0.506-0.092,0.734C475.244,1281.604,475.398,1281.674,475.554,1281.674z"/>
		<path style="fill:#AF5945;" d="M475.397,1276.099c0.107,0,0.216-0.033,0.309-0.101c4.528-3.317,11.956-2.864,12.03-2.86
			c0.291,0.021,0.538-0.199,0.557-0.487c0.019-0.288-0.199-0.538-0.487-0.557c-0.321-0.022-7.88-0.486-12.719,3.06
			c-0.233,0.171-0.284,0.498-0.113,0.731C475.078,1276.025,475.236,1276.099,475.397,1276.099z"/>
		<path style="fill:#AF5945;" d="M478.116,1292.798c0.049,0,0.098-0.007,0.147-0.021l5.75-1.682
			c0.277-0.081,0.436-0.372,0.355-0.649c-0.081-0.277-0.372-0.437-0.649-0.355l-5.751,1.682c-0.277,0.081-0.436,0.372-0.355,0.649
			C477.681,1292.65,477.89,1292.798,478.116,1292.798z"/>
		<path style="fill:#305777;" d="M291.423,1388.025v-29.623c0-0.368,0.299-0.667,0.667-0.667h41.477
			c0.368,0,0.666,0.298,0.666,0.667v29.623c0,11.803-9.602,21.405-21.405,21.405S291.423,1399.827,291.423,1388.025z
			 M292.756,1359.068v28.957c0,11.068,9.004,20.072,20.072,20.072c11.068,0,20.072-9.004,20.072-20.072v-28.957H292.756z"/>
		<path style="fill:#305777;" d="M292.089,1370.081h41.477c0.368,0,0.666-0.299,0.666-0.667c0-0.368-0.298-0.666-0.666-0.666
			h-41.477c-0.368,0-0.667,0.299-0.667,0.666C291.423,1369.782,291.721,1370.081,292.089,1370.081z"/>
		<path style="fill:#305777;" d="M233.451,1756.864c3.008,0,5.826-0.182,8.354-0.453c10.907-1.167,18.899-4.191,18.979-4.221
			c0.259-0.099,0.389-0.39,0.29-0.65c-0.099-0.26-0.391-0.388-0.65-0.29c-0.079,0.03-7.97,3.013-18.753,4.163
			c-9.924,1.058-24.4,0.737-37.015-6.802c-0.238-0.143-0.547-0.065-0.689,0.174c-0.143,0.238-0.065,0.547,0.174,0.689
			C213.777,1755.236,224.459,1756.864,233.451,1756.864z"/>
		<path style="fill:#305777;" d="M239.126,1746.904c13.293,0,22.919-2.902,23.087-2.954c0.265-0.082,0.414-0.364,0.331-0.629
			c-0.082-0.265-0.364-0.415-0.629-0.331c-0.291,0.09-29.393,8.849-56.288-4.455c-0.25-0.123-0.551-0.021-0.674,0.228
			c-0.123,0.249-0.021,0.551,0.228,0.674C216.921,1745.244,229.073,1746.904,239.126,1746.904z"/>
		<path style="fill:#3E8EDD;" d="M455.05,1798.9l8.267,7.789c6.087,5.734,15.587,5.734,21.674,0l8.267-7.789
			c18.353-17.291,28.758-41.388,28.758-66.604v-38.745h-95.723v38.745C426.292,1757.511,436.697,1781.609,455.05,1798.9z"/>
		<path style="fill:#305777;" d="M474.154,1749.541c-6.088,0-11.04-4.952-11.04-11.04v-44.949c0-0.553,0.448-1,1-1
			c0.552,0,1,0.447,1,1v44.949c0,4.984,4.056,9.04,9.04,9.04s9.04-4.056,9.04-9.04v-44.949c0-0.553,0.448-1,1-1c0.552,0,1,0.447,1,1
			v44.949C485.195,1744.589,480.242,1749.541,474.154,1749.541z"/>
		<path style="fill:#FFB12A;" d="M259.888,1194.771c0,0,28.474-25.236,69.638-7.318c6.438,2.802,3.236-46.635-38.057-43.717
			C253.81,1146.398,253.532,1190.326,259.888,1194.771z"/>
		<path style="fill:#FF9803;" d="M264.754,1191.251c0,0,7.196-13.296,32.375-19.128c15.688-3.634,34.36,5.154,43.521,10.365
			c2.925,1.664,3.473,5.65,1.115,8.051l0,0c-1.648,1.678-4.222,2.016-6.254,0.832
			C325.969,1185.813,297.507,1172.633,264.754,1191.251z"/>
		<path style="fill:#FF9803;" d="M295.771,1143.622c0.371,0.161,12.803,10.319,16.01,28.165l-23.829,3.024
			c0,0,0.38-12.954-3.415-30.04C284.537,1144.771,290.406,1141.299,295.771,1143.622z"/>
	</g>
	<g id="_x31_">
		<path style="fill:#9B453A;" d="M2525.818,1399.945c0,0,1.705,17.118,25.104,25.935
			C2550.922,1425.88,2554.722,1403.024,2525.818,1399.945z"/>
		<path style="fill:#30313C;" d="M2335.808,1706.644c-1.202,0-2.413-0.386-3.434-1.182c-2.434-1.899-2.868-5.411-0.97-7.846
			l136.047-260.869c1.899-2.434,5.412-2.868,7.846-0.97c2.434,1.899,2.868,5.411,0.97,7.846l-136.047,260.869
			C2339.117,1705.905,2337.471,1706.644,2335.808,1706.644z"/>
		<path style="fill:#F69D85;" d="M2643.223,1247.173c-10.084-1.797-19.715,4.92-21.512,15.003l-30.331,79.974l-74.02,74.978
			c-4.201,4.246-4.652,11.06-0.834,15.842c4.115,5.155,11.63,5.997,16.784,1.882l87.732-70.045c2.874-2.3,4.978-5.629,5.675-9.538
			l0.177-0.993l31.332-85.591C2660.024,1258.602,2653.307,1248.97,2643.223,1247.173z"/>
		<path style="fill:#FF593A;" d="M2626.055,1246.882c0,0-30.695,9.593-39.791,92.341l-60.446,60.722c0,0,16.845,3.778,25.104,25.935
			c0,0,39.444-27.116,61.12-43.423s38.344-55.864,38.647-85.011C2650.991,1268.3,2626.055,1246.882,2626.055,1246.882z"/>
		<path style="fill:#9B453A;" d="M2557.987,1421.688c-0.285,0-0.552-0.178-0.651-0.462c-8.209-23.41-24.881-27.213-25.048-27.249
			c-0.373-0.079-0.61-0.445-0.532-0.817c0.08-0.374,0.453-0.615,0.816-0.532c0.176,0.036,17.585,3.958,26.066,28.142
			c0.126,0.359-0.063,0.754-0.423,0.88C2558.14,1421.675,2558.063,1421.688,2557.987,1421.688z"/>
		<path style="fill:#30313C;" d="M2465.874,1445.336c-2.839,0-5.371-2.009-5.929-4.901c-0.632-3.278,1.512-6.448,4.79-7.081
			l101.47-19.575c3.274-0.638,6.448,1.512,7.081,4.79c0.632,3.278-1.512,6.448-4.79,7.081l-101.47,19.575
			C2466.64,1445.301,2466.254,1445.336,2465.874,1445.336z"/>
		<path style="fill:#F69D85;" d="M2527.944,1419.849c-7.608,0.392-15.591,3.073-20.683,8.954c-1.035,1.328-2.999,1.544-4.253,0.395
			c-3.555-4.692,6.615-11.583,10.089-13.959C2538.416,1400.243,2537.946,1421.214,2527.944,1419.849z"/>
		<path style="fill:#F69D85;" d="M2514.199,1440.815c-0.163,0-0.328-0.014-0.494-0.044c-5.039-0.914-7.845-4.428-8.149-4.825
			c-0.92-1.207-0.688-2.931,0.518-3.852c1.202-0.915,2.914-0.691,3.838,0.5c0.061,0.076,1.834,2.236,4.774,2.769
			c1.493,0.271,2.484,1.701,2.214,3.194C2516.658,1439.885,2515.501,1440.815,2514.199,1440.815z"/>
		<path style="fill:#F69D85;" d="M2518.603,1440.02c-0.163,0-0.328-0.014-0.494-0.044c-5.039-0.915-7.845-4.428-8.148-4.826
			c-0.92-1.206-0.688-2.931,0.519-3.851c1.201-0.917,2.915-0.691,3.838,0.501c0.063,0.079,1.835,2.236,4.774,2.769
			c1.493,0.271,2.483,1.701,2.213,3.195C2521.063,1439.09,2519.906,1440.02,2518.603,1440.02z"/>
		<path style="fill:#F69D85;" d="M2523.073,1438.921c-0.163,0-0.328-0.014-0.494-0.044c-5.039-0.915-7.844-4.428-8.148-4.826
			c-0.92-1.206-0.688-2.931,0.518-3.851c1.201-0.917,2.914-0.691,3.838,0.501c0.06,0.074,1.832,2.235,4.773,2.769
			c1.493,0.271,2.483,1.701,2.213,3.195C2525.532,1437.991,2524.376,1438.921,2523.073,1438.921z"/>
		<path style="fill:#F69D85;" d="M2527.443,1438.311c-0.163,0-0.328-0.014-0.494-0.044c-5.039-0.914-7.845-4.428-8.149-4.825
			c-0.92-1.207-0.688-2.931,0.518-3.852c1.202-0.916,2.914-0.691,3.838,0.5c0.061,0.076,1.834,2.236,4.774,2.769
			c1.493,0.271,2.484,1.701,2.214,3.194C2529.902,1437.381,2528.745,1438.311,2527.443,1438.311z"/>
		<rect x="2646.352" y="1197.369" style="fill:#F69D85;" width="30.832" height="49.934"/>
		<path style="fill:#D1836B;" d="M2671.434,1222.333c-12.979,6.795-25.082,5.406-25.082,5.406v-9.672L2671.434,1222.333z"/>
		<path style="fill:#5E3628;" d="M2632.385,1167.908c0,0-3.07-9.276,0.894-17.858l9.337,3.701
			C2642.616,1153.751,2635.937,1159.802,2632.385,1167.908z"/>
		<path style="fill:#F69D85;" d="M2650.081,1223.48L2650.081,1223.48c-17.148-5.321-26.875-23.996-21.725-41.713l4.84-16.652
			c5.15-17.717,23.226-27.766,40.374-22.445l0,0c17.148,5.321,26.875,23.996,21.725,41.713l-4.84,16.652
			C2685.305,1218.752,2667.229,1228.801,2650.081,1223.48z"/>
		<path style="fill:#F69D85;" d="M2703.046,1197.941c-1.368,4.706-6.17,7.376-10.725,5.962c-4.555-1.413-7.139-6.374-5.771-11.08
			c1.368-4.706,6.17-7.376,10.725-5.962C2701.83,1188.274,2704.414,1193.235,2703.046,1197.941z"/>
		<path style="fill:#F69D85;" d="M2638.156,1178.988c-1.368,4.706-6.17,7.376-10.725,5.962s-7.139-6.374-5.771-11.08
			c1.368-4.706,6.17-7.376,10.725-5.962S2639.524,1174.282,2638.156,1178.988z"/>
		<path style="fill:#F69D85;" d="M2662.702,1422.072h-1.871c-28.477,0-51.563-23.851-51.563-53.272l4.404-75.058
			c0-29.422,18.681-59.784,47.158-59.784h1.871c23.779,0,51.563,23.851,51.563,53.272v81.57
			C2714.264,1398.222,2691.179,1422.072,2662.702,1422.072z"/>
		<path style="fill:#30313C;" d="M2667.299,1181.692c-0.694,2.393-0.3,4.629,0.881,4.995c1.181,0.366,2.701-1.278,3.396-3.671
			c0.694-2.393,0.3-4.629-0.881-4.995C2669.514,1177.655,2667.994,1179.299,2667.299,1181.692z"/>
		<path style="fill:#30313C;" d="M2648.551,1175.884c-0.694,2.393-0.3,4.629,0.881,4.995c1.181,0.366,2.701-1.278,3.395-3.671
			c0.694-2.393,0.3-4.629-0.881-4.995C2650.765,1171.848,2649.245,1173.491,2648.551,1175.884z"/>
		<path style="fill:#5E3628;" d="M2696.916,1148.852c-0.044-6.602-2.046-15.137-10.555-21.024
			c-10.76-7.443-29.825-2.91-36.479,1.473c-9.038,5.953-18.21,18.725-18.21,18.725c-11.77,2.025-13.242,13.339,4.512,13.296
			c15.334-0.037,16.276-8.744,31.324-8.42c4.224,0.091,10.209,1.187,15.005,2.915c-0.483,3.519,0.394,7.301,1.428,13.349
			c1.951,11.415,10.744,17.319,10.744,17.319s10.443-9.937,10.567-20.295C2705.357,1157.409,2701.162,1152.037,2696.916,1148.852z"
			/>
		<path style="fill:#E58A76;" d="M2678.21,1194.397c-0.229,1.772-1.938,2.999-3.818,2.74c-1.88-0.259-3.219-1.905-2.99-3.677
			c0.229-1.772,1.938-2.999,3.818-2.741C2677.1,1190.978,2678.439,1192.624,2678.21,1194.397z"/>
		<path style="fill:#E58A76;" d="M2642.878,1184.97c-0.229,1.772-1.938,2.999-3.818,2.741s-3.219-1.905-2.99-3.677
			c0.228-1.772,1.938-2.999,3.817-2.741C2641.768,1181.552,2643.106,1183.198,2642.878,1184.97z"/>
		<path style="fill:#AF5945;" d="M2628.742,1181.523c-0.046,0-0.093-0.006-0.14-0.02c-0.272-0.077-0.431-0.36-0.354-0.633
			c0.716-2.53-0.604-3.382-1.88-4.206c-1.063-0.687-2.387-1.541-1.271-3.35c2.058-3.337,6.384-2.284,6.427-2.273
			c0.274,0.07,0.439,0.348,0.37,0.622c-0.069,0.274-0.347,0.44-0.622,0.372c-0.148-0.037-3.645-0.874-5.304,1.817
			c-0.562,0.911-0.218,1.194,0.954,1.951c1.287,0.831,3.233,2.087,2.31,5.347
			C2629.171,1181.376,2628.966,1181.523,2628.742,1181.523z"/>
		<path style="fill:#AF5945;" d="M2693.945,1201.145c-0.009,0-0.019,0-0.028,0c-0.283-0.015-0.5-0.257-0.485-0.539
			c0.182-3.398,2.427-3.914,3.913-4.255c1.37-0.315,1.754-0.452,1.518-1.505c-0.699-3.118-4.272-3.533-4.424-3.549
			c-0.281-0.03-0.486-0.282-0.456-0.563c0.029-0.281,0.281-0.489,0.562-0.457c0.181,0.019,4.457,0.5,5.319,4.345
			c0.469,2.094-1.06,2.445-2.289,2.728c-1.464,0.336-2.978,0.684-3.118,3.31C2694.442,1200.933,2694.216,1201.145,2693.945,1201.145
			z"/>
		<path style="fill:#AF5945;" d="M2657.95,1167.341c-0.237,0-0.473-0.098-0.643-0.289c-1.125-1.265-2.337-1.912-3.605-1.922
			c-0.01,0-0.021,0-0.032,0c-2.206,0-3.967,1.889-3.985,1.908c-0.321,0.349-0.865,0.373-1.215,0.054
			c-0.35-0.32-0.376-0.862-0.057-1.213c0.092-0.101,2.279-2.469,5.256-2.469c0.011,0,0.021,0,0.032,0
			c1.78,0.01,3.426,0.851,4.891,2.5c0.316,0.355,0.284,0.899-0.072,1.214C2658.358,1167.269,2658.154,1167.341,2657.95,1167.341z"/>
		<path style="fill:#AF5945;" d="M2675.461,1173.28c-0.322,0-0.631-0.182-0.778-0.492c-0.982-2.071-2.159-3.294-3.498-3.635
			c-1.562-0.398-2.903,0.561-2.916,0.571c-0.382,0.279-0.92,0.198-1.201-0.183c-0.281-0.381-0.203-0.916,0.176-1.198
			c0.08-0.059,1.979-1.448,4.338-0.863c1.871,0.465,3.438,2.003,4.656,4.572c0.204,0.43,0.021,0.942-0.409,1.146
			C2675.71,1173.253,2675.584,1173.28,2675.461,1173.28z"/>
		<path style="fill:#F69D85;" d="M2601.635,1442.339c2.912,53.473,0.916,107.141-2.265,160.536
			c4.877,43.823,9.555,88.563,12.399,132.703c0.956,11.287,2.078,23.9,3.258,35.083c1.082,7.762,0.633,15.671,4.942,23.121
			c7.172,13.42,28.817,11.51,33.36-3.215c2.806-8.136,0.855-15.814,0.434-23.64c-0.981-11.22-2.294-23.82-3.503-35.059
			c-4.77-41.555-10.148-83.786-12.202-125.582c9.195-52.319,19.611-104.623,34.693-155.619
			C2687.123,1395.412,2600.348,1385.481,2601.635,1442.339z"/>
		<path style="fill:#333647;" d="M2655.766,1804.74c-0.259,0.991-0.693,1.907-1.268,2.712c-1.426,2.001-3.722,3.314-6.329,3.327
			l-59.62,0.21c-2.968,0.014-5.226-1.693-6.362-3.977c-0.35-0.693-0.594-1.445-0.718-2.221c-0.379-2.326,0.291-4.851,2.332-6.712
			l8.222-7.491l8.837-8.051c27.595,4.12,53.975-3.337,53.975-3.337l0.674,13.017l0.514,9.969
			C2656.07,1803.073,2655.98,1803.929,2655.766,1804.74z"/>
		<path style="fill:#333647;" d="M2595.922,1787.036c0,0,12.458-11.465,16.165-14.206s13.018,0.666,12.005,4.465
			c-1.013,3.8-7.427,9.823-7.427,9.823L2595.922,1787.036z"/>
		<path style="fill:#404660;" d="M2655.766,1804.74c-0.895,3.452-3.94,6.019-7.597,6.039l-59.62,0.21
			c-3.871,0.014-6.542-2.887-7.08-6.198L2655.766,1804.74z"/>
		<path style="fill:#404660;" d="M2601.992,1804.777l-9.071,3.866l-10.733-1.631c-0.35-0.693-0.594-1.445-0.718-2.221
			c-0.379-2.326,0.291-4.851,2.332-6.712l8.222-7.491C2592.023,1790.588,2601.984,1792.29,2601.992,1804.777z"/>
		<path style="fill:#404660;" d="M2655.766,1804.74c-0.259,0.991-0.693,1.907-1.268,2.712l-14.469-2.701
			c-0.008-12.19,15.481-12.533,15.481-12.533l0.514,9.969C2656.07,1803.073,2655.98,1803.929,2655.766,1804.74z"/>
		<path style="fill:#FFFFFF;" d="M2605.3,1794.26c-0.187,0-0.366-0.102-0.457-0.279c-2.729-5.347-8.942-6.428-9.004-6.439
			c-0.279-0.046-0.469-0.309-0.423-0.589c0.046-0.279,0.308-0.466,0.588-0.423c0.276,0.045,6.783,1.167,9.752,6.985
			c0.129,0.252,0.029,0.561-0.224,0.69C2605.458,1794.242,2605.378,1794.26,2605.3,1794.26z"/>
		<path style="fill:#FFFFFF;" d="M2609.651,1790.219c-0.187,0-0.366-0.102-0.457-0.279c-2.729-5.347-8.942-6.428-9.004-6.439
			c-0.279-0.046-0.469-0.309-0.423-0.589c0.045-0.279,0.307-0.467,0.588-0.423c0.276,0.045,6.783,1.166,9.752,6.984
			c0.129,0.252,0.029,0.561-0.224,0.69C2609.809,1790.201,2609.729,1790.219,2609.651,1790.219z"/>
		<path style="fill:#FFFFFF;" d="M2613.814,1786.459c-0.187,0-0.366-0.102-0.457-0.279c-2.735-5.361-8.941-6.428-9.003-6.438
			c-0.279-0.046-0.469-0.309-0.424-0.589c0.046-0.28,0.307-0.466,0.588-0.424c0.275,0.045,6.783,1.166,9.752,6.984
			c0.129,0.252,0.029,0.561-0.223,0.69C2613.972,1786.441,2613.893,1786.459,2613.814,1786.459z"/>
		<path style="fill:#F69D85;" d="M2724.106,1807.865c-9.477,0-17.946-3.306-19.322-12.96c-0.263-3.739-26.9-185.78-26.797-189.435
			c0-0.006,0-154.325,0-154.325c0.402-25.319,38.254-25.527,38.699,0.001c0-0.001,0,152.947,0,152.947l25.441,175.108
			C2742.127,1779.2,2735.76,1807.958,2724.106,1807.865z"/>
		<path style="fill:#333647;" d="M2743.057,1804.74c-0.259,0.991-0.693,1.907-1.268,2.712c-1.426,2.001-3.722,3.314-6.329,3.327
			l-59.62,0.21c-2.968,0.014-5.226-1.693-6.362-3.977c-0.35-0.693-0.594-1.445-0.718-2.221c-0.379-2.326,0.29-4.851,2.332-6.712
			l8.222-7.491l8.837-8.051c27.595,4.12,53.976-3.337,53.976-3.337l0.674,13.017l0.514,9.969
			C2743.361,1803.073,2743.271,1803.929,2743.057,1804.74z"/>
		<path style="fill:#333647;" d="M2683.213,1787.036c0,0,12.458-11.465,16.165-14.206s13.018,0.666,12.005,4.465
			c-1.013,3.8-7.427,9.823-7.427,9.823L2683.213,1787.036z"/>
		<path style="fill:#404660;" d="M2743.057,1804.74c-0.895,3.452-3.94,6.019-7.597,6.039l-59.62,0.21
			c-3.871,0.014-6.542-2.887-7.08-6.198L2743.057,1804.74z"/>
		<path style="fill:#404660;" d="M2689.283,1804.777l-9.071,3.866l-10.733-1.631c-0.35-0.693-0.594-1.445-0.718-2.221
			c-0.379-2.326,0.29-4.851,2.332-6.712l8.222-7.491C2679.314,1790.588,2689.275,1792.29,2689.283,1804.777z"/>
		<path style="fill:#404660;" d="M2743.057,1804.74c-0.259,0.991-0.693,1.907-1.268,2.712l-14.469-2.701
			c-0.008-12.19,15.481-12.533,15.481-12.533l0.514,9.969C2743.361,1803.073,2743.271,1803.929,2743.057,1804.74z"/>
		<path style="fill:#FFFFFF;" d="M2692.591,1794.26c-0.187,0-0.367-0.102-0.457-0.279c-2.729-5.347-8.942-6.428-9.004-6.439
			c-0.279-0.046-0.468-0.309-0.423-0.589c0.046-0.279,0.307-0.466,0.588-0.423c0.276,0.045,6.783,1.167,9.752,6.985
			c0.129,0.252,0.029,0.561-0.224,0.69C2692.749,1794.242,2692.669,1794.26,2692.591,1794.26z"/>
		<path style="fill:#FFFFFF;" d="M2696.942,1790.219c-0.187,0-0.366-0.102-0.457-0.279c-2.729-5.347-8.942-6.428-9.004-6.439
			c-0.279-0.046-0.469-0.309-0.423-0.589c0.045-0.279,0.307-0.467,0.588-0.423c0.276,0.045,6.783,1.166,9.752,6.984
			c0.129,0.252,0.029,0.561-0.224,0.69C2697.1,1790.201,2697.021,1790.219,2696.942,1790.219z"/>
		<path style="fill:#FFFFFF;" d="M2701.106,1786.459c-0.187,0-0.366-0.102-0.457-0.279c-2.736-5.361-8.941-6.428-9.003-6.438
			c-0.28-0.046-0.469-0.309-0.424-0.589c0.045-0.28,0.31-0.466,0.588-0.424c0.276,0.045,6.783,1.166,9.752,6.984
			c0.129,0.252,0.029,0.561-0.224,0.69C2701.263,1786.441,2701.184,1786.459,2701.106,1786.459z"/>
		<path style="fill:#FF593A;" d="M2646.35,1236.089c0,0-20.188,5.116-37.082,55.205c-15.862,47.029-14.001,134.855-18.267,166.01
			c0,0,20.72,10.359,84.09,7.98c41.399-1.554,65.728-10.046,65.728-10.046s3.129-58.602-8.27-100.79
			c-12.978-48.029-0.95-120.489-55.367-118.356C2677.182,1236.091,2653.48,1250.483,2646.35,1236.089z"/>
		<path style="fill:#9B453A;" d="M2656.942,1250.6c-0.839,0-1.683-0.034-2.531-0.107c-13.906-1.182-16.305-10.57-16.327-10.69
			c-0.069-0.368,0.173-0.722,0.54-0.791c0.362-0.068,0.72,0.172,0.79,0.54l0,0c0.086,0.45,2.254,8.499,15.111,9.592
			c12.823,1.091,25.806-7.237,31.406-13.1c0.259-0.271,0.688-0.28,0.957-0.022c0.27,0.258,0.281,0.687,0.022,0.957
			C2682.231,1241.879,2670.277,1250.6,2656.942,1250.6z"/>
		<path style="fill:#AF5945;" d="M2659.013,1199.615c-6.49,0-10.879-3.556-11.093-3.733c-0.218-0.18-0.249-0.503-0.069-0.721
			c0.179-0.218,0.503-0.249,0.721-0.069c0.058,0.048,5.892,4.757,13.798,3.161c0.278-0.054,0.548,0.124,0.604,0.401
			c0.056,0.277-0.123,0.548-0.401,0.604C2661.331,1199.508,2660.14,1199.615,2659.013,1199.615z"/>
		<path style="fill:#3E8EDD;" d="M2733.727,1605.224c0,0,11.414-84.2,12.257-145.477c0.266-19.359-4.772-64.597-7.869-76.15
			c0,0-40.85-1.34-43.391-42.453c0,0-2.012-27.953-2.38-37.286c-0.915-23.21,2.631-67.059,2.631-67.059s-7.108-4.487-12.775-0.953
			c0,0-12.426,29.539-16.094,68.833l-42.965,1.248c5.18-37.628,18.418-67.493,18.418-67.493c-7.911-3.748-15.505,8.447-15.505,8.447
			s-36.267,64.217-35.054,139.626c0.317,19.691-1.914,74.718-1.914,74.718s-7.224,115.504-7.719,139.168
			c-0.549,26.256,23.931,160.848,23.931,160.848s26.278,15.863,56.644-1.162l-15.507-154.855l11.733-49.314
			c1.414,22.782,2.92,42.137,4.271,49.314c4.855,25.778,30.15,156.018,30.15,156.018s26.278,15.863,56.644-1.162L2733.727,1605.224z
			"/>
		<path style="fill:#AF5945;" d="M2655.941,1193.183c-0.093,0-0.186-0.025-0.271-0.078c-0.405-0.252-3.931-2.525-3.079-4.566
			c0.724-1.735,5.952-8.821,6.174-9.122c0.169-0.227,0.489-0.276,0.717-0.108c0.228,0.168,0.276,0.489,0.108,0.717
			c-1.857,2.514-5.511,7.611-6.053,8.908c-0.408,0.976,1.626,2.645,2.675,3.301c0.24,0.15,0.313,0.466,0.163,0.706
			C2656.28,1193.098,2656.113,1193.183,2655.941,1193.183z"/>
		<path style="fill:#305777;" d="M2628.216,1753.995c-15.055,0-24.994-3.672-25.153-3.732c-0.264-0.1-0.397-0.396-0.297-0.661
			c0.1-0.264,0.396-0.398,0.661-0.297c0.255,0.097,25.766,9.504,57.086-2.19c0.264-0.1,0.56,0.035,0.659,0.301
			c0.099,0.266-0.036,0.561-0.301,0.66C2648.768,1752.594,2637.515,1753.995,2628.216,1753.995z"/>
		<path style="fill:#305777;" d="M2718.656,1754.945c-16.108,0-28.416-5.194-28.608-5.277c-0.26-0.112-0.38-0.414-0.267-0.674
			c0.113-0.26,0.414-0.38,0.674-0.267c0.296,0.127,29.924,12.617,57.292-1.588c0.252-0.129,0.561-0.032,0.691,0.219
			c0.13,0.252,0.032,0.561-0.219,0.692C2738.155,1753.273,2727.794,1754.945,2718.656,1754.945z"/>
		<path style="fill:#305777;" d="M2626.402,1743c-14.95,0-24.95-2.92-25.112-2.969c-0.271-0.081-0.425-0.367-0.344-0.638
			c0.081-0.271,0.366-0.426,0.638-0.344c0.263,0.079,26.671,7.777,57.935-2.113c0.268-0.087,0.558,0.064,0.643,0.334
			c0.085,0.27-0.064,0.558-0.334,0.643C2647.521,1741.807,2635.95,1743,2626.402,1743z"/>
		<path style="fill:#305777;" d="M2714.288,1743.528c-14.924,0-25.788-3.013-25.967-3.064c-0.272-0.078-0.43-0.361-0.353-0.633
			c0.078-0.273,0.361-0.43,0.634-0.353c0.293,0.083,29.668,8.219,58.183-2.533c0.264-0.099,0.561,0.034,0.661,0.299
			c0.1,0.265-0.034,0.561-0.299,0.661C2735.698,1742.222,2724.113,1743.528,2714.288,1743.528z"/>
		<path style="fill:#305777;" d="M2658.008,1557.099c-0.265,0-0.49-0.204-0.51-0.472c-1.253-15.916-4.251-37.866-4.281-38.086
			c-0.039-0.281,0.158-0.539,0.438-0.577c0.281-0.039,0.539,0.158,0.577,0.438c0.03,0.22,3.032,22.198,4.287,38.144
			c0.022,0.283-0.189,0.529-0.471,0.551C2658.035,1557.098,2658.022,1557.099,2658.008,1557.099z"/>
		<path style="fill:#305777;" d="M2732.124,1482.51c-1.552,0-3.122-0.142-4.681-0.433c-6.23-1.161-11.482-4.605-14.407-9.449
			c-6.41-10.612-9.515-57.767-9.644-59.769c-0.013-0.201,0.064-0.397,0.21-0.536c0.147-0.139,0.348-0.205,0.547-0.18
			c22.176,2.698,37.782-2.782,37.937-2.838c0.35-0.127,0.739,0.056,0.866,0.408c0.126,0.352-0.056,0.74-0.408,0.866
			c-0.156,0.056-15.664,5.513-37.746,3.004c0.448,6.413,3.604,48.755,9.396,58.345c2.726,4.514,7.645,7.728,13.497,8.818
			c6.336,1.18,12.832-0.217,17.379-3.74c0.295-0.228,0.721-0.175,0.95,0.121c0.229,0.296,0.175,0.721-0.121,0.95
			C2742.178,1480.959,2737.248,1482.51,2732.124,1482.51z"/>
		<path style="fill:#305777;" d="M2719.458,1429.933c-4.153,0-8.859-0.191-14.141-0.667c-0.372-0.033-0.647-0.362-0.614-0.735
			c0.034-0.373,0.364-0.649,0.735-0.614c26.118,2.35,38.234-2.439,38.353-2.488c0.347-0.141,0.741,0.025,0.882,0.371
			c0.142,0.346-0.024,0.741-0.369,0.883C2743.906,1426.847,2736.139,1429.933,2719.458,1429.933z"/>
		<path style="fill:#30313C;" d="M2205.621,1731.144c15.618,0,28.324,12.706,28.324,28.325c0,15.618-12.706,28.325-28.324,28.325
			c-15.618,0-28.325-12.706-28.325-28.325C2177.296,1743.851,2190.002,1731.144,2205.621,1731.144L2205.621,1731.144z
			 M2205.621,1707.949c-28.454,0-51.52,23.066-51.52,51.52c0,28.454,23.066,51.52,51.52,51.52c28.454,0,51.52-23.066,51.52-51.52
			C2257.141,1731.015,2234.074,1707.949,2205.621,1707.949L2205.621,1707.949z"/>
		<path style="fill:#394572;" d="M2200.749,1607.182c0,0,26.923-38.111,52.465-37.436c25.542,0.675,89.889,51.609,89.889,51.609
			S2266.263,1637.203,2200.749,1607.182z"/>
		<path style="fill:#394572;" d="M2405.131,1627.531c0,0-13.904-39.558-37.073-55.144c-23.168-15.586-96.57,8.65-128.531,38.656
			C2239.528,1611.043,2352.059,1628.335,2405.131,1627.531z"/>
		<path style="fill:#FFB12A;" d="M2188.231,1621.075c4.418,21.308,58.45,91.069,58.45,91.069l152.141-24.716l19.116-43.565
			c2.737-7.336-2.211-15.277-10.003-16.053l-207.187-20.628C2192.957,1606.406,2186.642,1613.408,2188.231,1621.075z"/>
		<path style="fill:#30313C;" d="M2205.62,1765.059c-1.391,0-2.784-0.516-3.867-1.555c-2.229-2.136-2.304-5.674-0.168-7.903
			l40.935-42.712c0.842-0.879,1.948-1.459,3.15-1.652l156.327-25.07l134.805-249.506c1.947-2.397,5.467-2.762,7.863-0.815
			c2.396,1.946,2.762,5.466,0.815,7.863l-136.151,251.163c-0.866,1.067-2.096,1.777-3.454,1.995l-156.583,25.111l-39.636,41.358
			C2208.558,1764.482,2207.09,1765.059,2205.62,1765.059z"/>
		<path style="fill:#30313C;" d="M2326.596,1770.844c-13.923,0-27.033-6.787-35.07-18.156l-25.811-36.509
			c-1.782-2.521-1.184-6.009,1.338-7.791c2.521-1.782,6.009-1.183,7.791,1.338l25.811,36.509
			c5.945,8.409,15.643,13.429,25.941,13.429c9.509,0,18.436-4.204,24.492-11.535c6.029-7.298,8.479-16.806,6.73-26.105
			l-5.279-21.819c-0.727-3.001,1.118-6.022,4.118-6.748c3.004-0.727,6.023,1.118,6.748,4.118l5.312,21.954
			c0.021,0.086,0.04,0.173,0.056,0.26c2.427,12.625-0.878,25.55-9.066,35.46C2351.52,1765.16,2339.451,1770.844,2326.596,1770.844z"
			/>
		<path style="fill:#30313C;" d="M2357.086,1781.007c-13.922,0-27.032-6.787-35.07-18.155l-34.783-50.171
			c-1.759-2.537-1.128-6.019,1.409-7.778c2.537-1.76,6.019-1.129,7.778,1.409l34.754,50.128
			c5.916,8.367,15.615,13.387,25.912,13.387c9.509,0,18.436-4.204,24.492-11.535c6.05-7.323,8.495-16.871,6.712-26.199
			l-7.485-36.625c-0.618-3.024,1.333-5.978,4.358-6.596c3.027-0.616,5.978,1.333,6.596,4.358l7.492,36.659
			c0.004,0.021,0.009,0.043,0.012,0.064c2.427,12.624-0.878,25.548-9.065,35.459
			C2382.01,1775.323,2369.941,1781.007,2357.086,1781.007z"/>
		<path style="fill:#606A97;" d="M2251.887,1601.743c-0.213,0-0.422-0.105-0.544-0.298c-0.192-0.3-0.104-0.7,0.196-0.891
			c0.216-0.137,21.678-13.809,34.279-18.759c0.332-0.13,0.707,0.032,0.837,0.365c0.131,0.332-0.033,0.707-0.365,0.837
			c-12.486,4.904-33.842,18.508-34.056,18.645C2252.126,1601.71,2252.006,1601.743,2251.887,1601.743z"/>
		<path style="fill:#997243;" d="M2417.939,1644.509c-0.021,0-0.043-0.001-0.064-0.003l-229.707-22.788
			c-0.355-0.035-0.614-0.351-0.579-0.706c0.035-0.354,0.343-0.624,0.706-0.578l229.707,22.788c0.355,0.035,0.614,0.351,0.578,0.706
			C2418.548,1644.26,2418.268,1644.509,2417.939,1644.509z"/>
		<path style="fill:#FFB12A;" d="M2704.042,1172.638c0,0-20.13-32.286-64.689-26.801c-6.969,0.858,10.147-45.633,48.91-31.103
			C2723.613,1127.985,2711.4,1170.182,2704.042,1172.638z"/>
		<path style="fill:#FF9803;" d="M2700.377,1167.881c0,0-3.122-14.793-25.606-27.538c-14.009-7.941-34.408-4.82-44.672-2.427
			c-3.278,0.764-4.935,4.431-3.356,7.403l0,0c1.104,2.078,3.475,3.133,5.76,2.575
			C2643.229,1145.275,2674.263,1140.725,2700.377,1167.881z"/>
		<path style="fill:#FF9803;" d="M2684.17,1113.402c-0.402,0.049-15.207,6.256-23.352,22.455l21.988,9.67
			c0,0,3.316-12.528,11.809-27.832C2694.615,1117.695,2689.975,1112.699,2684.17,1113.402z"/>
		<path style="fill:#F69D85;" d="M2600.914,1422.646c-8.043,0.152-16.438,2.024-23.121,6.655c-1.324,0.892-3.119,0.541-4.011-0.783
			c-2.282-5.234,8.868-9.549,12.504-11.668c4.551-1.979,9.217-3.46,14.144-4.221
			C2607.495,1411.614,2608.053,1422.978,2600.914,1422.646z"/>
		<path style="fill:#30313C;" d="M2538.47,1445.336c-2.839,0-5.371-2.009-5.929-4.901c-0.632-3.278,1.512-6.448,4.79-7.081
			l101.47-19.575c3.274-0.638,6.448,1.512,7.081,4.79c0.632,3.278-1.512,6.448-4.79,7.081l-101.469,19.575
			C2539.236,1445.301,2538.85,1445.336,2538.47,1445.336z"/>
		<path style="fill:#F69D85;" d="M2595.42,1429.432c-6.499,6.232-14.886,10.352-23.593,12.383c-3.031,0.807-4.59-3.776-1.729-4.995
			c6.846-3.053,13.213-7.672,17.598-13.754C2591.754,1417.993,2599.623,1424.483,2595.42,1429.432z"/>
		<path style="fill:#9B453A;" d="M2599.153,1400.917c0,0,3.899,18.384,25.522,26.74
			C2624.675,1427.657,2628.11,1403.088,2599.153,1400.917z"/>
		<path style="fill:#F69D85;" d="M2596.398,1431.757c-2.815,7.644-11.669,10.429-18.769,12.45c-2.93,0.887-4.691-3.465-2.018-4.879
			c4.108-2.467,9.531-5.239,11.154-9.941c-0.016,0-0.03,0.001-0.041,0.005c-0.073,0.099-0.104,0.247-0.138,0.391
			C2587.773,1423.397,2597.772,1425.411,2596.398,1431.757z"/>
		<path style="fill:#F69D85;" d="M2600.06,1432.431c0.645,3.042-1.007,6.086-3.168,8.078c-2.84,2.543-15.297,9.01-16.956,3.787
			c-0.191-4.144,6.115-4.454,8.267-7.265c1.063-1.09,2.375-2.03,2.286-3.302c-0.337,0.176-0.199,0.819-0.128,1.178
			C2588.663,1428.638,2598.546,1426.117,2600.06,1432.431z"/>
		<path style="fill:#F69D85;" d="M2611.265,1432.975c-5.368,6.887-13.309,11.396-21.559,13.853
			c-2.935,1.033-4.852-3.361-2.137-4.818c6.108-3.264,11.935-7.995,15.105-14.171
			C2605.926,1422.215,2614.679,1427.452,2611.265,1432.975z"/>
		<path style="fill:#F69D85;" d="M2711.551,1257.937c-10.131-1.509-14.625-1.754-16.135,8.377l-26.902,74.152l-79.578,80.185
			c-4.2,4.265-4.667,11.138-0.818,15.908c4.141,5.133,11.658,5.937,16.791,1.796l93.482-75.419c3.003-2.432,5.166-5.974,5.78-10.097
			l0.14-0.94l18.349-52.898C2724.169,1288.87,2721.681,1259.446,2711.551,1257.937z"/>
		<path style="fill:#FF593A;" d="M2694.975,1236.8c0,0,28.344-3.689,36.44,26.967c6.734,25.499,1.186,70.275-21.358,105.575
			c-17.131,26.823-85.382,58.315-85.382,58.315s-0.607-18.482-25.522-26.74c0,0,53.096-53.441,63.832-64.122
			C2673.721,1326.114,2680.666,1268.45,2694.975,1236.8z"/>
		<path style="fill:#9B453A;" d="M2708.443,1372.364c-0.141,0-0.282-0.043-0.404-0.133c-0.309-0.224-0.377-0.655-0.153-0.963
			c0.146-0.2,14.583-20.241,19.257-41.854c0.081-0.373,0.453-0.603,0.82-0.529c0.373,0.081,0.609,0.448,0.529,0.82
			c-4.737,21.903-19.343,42.171-19.49,42.373C2708.867,1372.266,2708.657,1372.364,2708.443,1372.364z"/>
		<path style="fill:#9B453A;" d="M2633.798,1423.917c-0.305,0-0.583-0.203-0.666-0.511c-6.975-25.82-27.012-28.676-27.214-28.701
			c-0.378-0.049-0.645-0.395-0.597-0.772c0.049-0.378,0.392-0.644,0.772-0.597c0.211,0.027,21.157,3.009,28.37,29.711
			c0.1,0.367-0.118,0.746-0.486,0.846C2633.918,1423.909,2633.857,1423.917,2633.798,1423.917z"/>
	</g>
</g>
</svg>
